<?xml version="1.0" encoding="UTF-8" standalone="no"?>
<!-- Generator: Adobe Illustrator 25.0.1, SVG Export Plug-In . SVG Version: 6.00 Build 0)  -->

<svg
   version="1.0"
   id="Layer_1"
   x="0px"
   y="0px"
   viewBox="0 0 50.800293 61.400002"
   xml:space="preserve"
   sodipodi:docname="uc.svg"
   width="50.800293"
   height="61.400002"
   inkscape:version="1.4 (e7c3feb1, 2024-10-09)"
   xmlns:inkscape="http://www.inkscape.org/namespaces/inkscape"
   xmlns:sodipodi="http://sodipodi.sourceforge.net/DTD/sodipodi-0.dtd"
   xmlns="http://www.w3.org/2000/svg"
   xmlns:svg="http://www.w3.org/2000/svg"><defs
   id="defs175" /><sodipodi:namedview
   id="namedview175"
   pagecolor="#ffffff"
   bordercolor="#999999"
   borderopacity="1"
   inkscape:showpageshadow="2"
   inkscape:pageopacity="0"
   inkscape:pagecheckerboard="0"
   inkscape:deskcolor="#d1d1d1"
   showguides="false"
   inkscape:zoom="2.6251211"
   inkscape:cx="-13.523185"
   inkscape:cy="51.807133"
   inkscape:window-width="1440"
   inkscape:window-height="757"
   inkscape:window-x="0"
   inkscape:window-y="0"
   inkscape:window-maximized="0"
   inkscape:current-layer="Layer_1" />
<style
   type="text/css"
   id="style1">
	.st0{fill:#231F20;}
	.st1{fill:none;stroke:#231F20;stroke-width:8.000000e-02;}
	.st2{fill:#853046;}
	.st3{fill:#D0BF7D;}
	.st4{fill:#FFFFFF;}
	.st5{fill:#00AEEF;}
	.st6{fill:none;}
</style>






































































































































<path
   class="st2"
   d="M 50.8,20.5 C 50.9,56.3 25.4,61.4 25.4,61.4 25.4,61.4 0,56 0,20.5 V 0 h 50.7 l 0.1,20.5"
   id="path135" />
<path
   class="st3"
   d="m 1.1,1 v 18.7 c 0.9,0.7 2,1.2 3.1,1.3 0,0 1.1,0.4 2.8,-1.5 0,0 1.6,-1.8 3.3,-1.8 0,0 1,-0.3 3.5,1.5 1,1 2.4,1.7 3.8,1.9 1.5,-0.1 2.8,-0.7 3.8,-1.8 1,-0.9 2.3,-1.5 3.7,-1.6 0,0 1.5,-0.3 3.8,1.7 1,1 2.4,1.6 3.9,1.7 1.5,-0.1 2.8,-0.8 3.7,-2 0.9,-0.9 2.2,-1.5 3.5,-1.7 1.3,0.1 2.6,0.7 3.5,1.7 0,0 2,2.1 3.5,1.9 1,0 2,-0.5 2.7,-1.3 V 1 H 1.1"
   id="path136" />
<path
   class="st2"
   d="m 19.4,4.5 c 0.8,0.1 1.7,-0.1 2.4,-0.5 1.1,-0.6 2.4,-0.6 3.5,0 1.2,-0.6 2.6,-0.6 3.8,0 0.9,0.4 1.8,0.7 2.8,0.6 v 0.2 l 1.3,0.1 v 1 h 0.7 v 1.9 h -0.7 v 0.5 h 0.7 v 1.9 H 33.2 V 11 h 0.7 v 2 h -0.7 v 0.8 h 0.7 v 1.9 h -0.7 v 0.6 h -6.8 c -0.6,0.3 -1.4,0.3 -2,0 H 18 v -0.8 l -0.7,-0.1 0.3,0.2 -0.6,0.6 -1,-0.9 h -0.5 c 0,0 -0.4,-0.2 0,-0.6 H 16 l 1,-0.9 0.7,0.6 h -0.4 v 0.2 L 18,14.5 v -1.8 l -0.8,-0.1 0.3,0.2 -0.6,0.7 -1.1,-1 h -0.5 c 0,0 -0.5,-0.3 0,-0.6 h 0.5 l 1,-0.9 0.7,0.6 -0.4,0.2 h 0.8 V 9.9 L 17,9.8 l 0.4,0.2 -0.6,0.6 -1,-0.9 h -0.5 c 0,0 -0.5,-0.2 0,-0.6 h 0.5 l 1,-1 0.7,0.6 L 17,8.9 17.9,8.8 V 7.1 H 17.1 L 17.5,7.3 16.8,8 15.9,7.1 h -0.5 c 0,0 -0.6,-0.2 0,-0.6 h 0.3 l 1.2,-1 0.5,0.5 -0.5,0.3 h 0.9 V 4.9 l 1.5,-0.1 0.1,-0.3"
   id="path137" />
<path
   class="st2"
   d="m 39.5,5.1 v 0 c -0.1,-0.3 -0.4,-1.6 1.7,-1.9 0.2,-0.5 0.6,-1 1,-1.3 0.4,0.4 0.7,0.9 1,1.4 0.9,0.2 1.6,1 1.7,1.9 0,0 -1.1,-0.6 -1.3,0.2 L 43.7,8 h 2.5 c 0.3,-0.3 0.5,-0.7 0.3,-1.2 0,0 1.6,-0.8 1.7,1.7 0.5,0.2 1,0.5 1.4,0.8 -0.4,0.5 -0.9,0.9 -1.5,1.1 0,0 -0.2,1.8 -1.7,1.7 0,0 0.5,-1 -0.2,-1.3 h -2.6 v 2.6 c 0.2,0.4 0.7,0.5 1.1,0.3 0,0 0.8,1.7 -1.5,1.7 -0.2,0.6 -0.6,1.1 -1,1.5 -0.5,-0.4 -0.8,-1 -1,-1.6 0,0 -1.6,-0.1 -1.7,-1.7 0,0 0.9,0.3 1.3,-0.3 l -0.1,-2.6 h -2.5 c -0.4,0.2 -0.5,0.7 -0.3,1.1 0,0 0,0.1 0.1,0.1 0,0 -1.7,0.6 -1.8,-1.6 -0.5,-0.2 -1,-0.6 -1.4,-1 0.4,-0.4 1,-0.8 1.5,-1 0,0 0.2,-1.7 1.8,-1.7 0,0 -0.6,1 0.2,1.3 h 2.6 V 5.2 C 40.7,4.8 40.2,4.7 39.8,4.9 39.6,5.1 39.6,5.1 39.5,5.1"
   id="path138" />
<polygon
   class="st2"
   points="240.8,49.5 244.9,45.3 247.9,48.2 242.7,53.2 242.7,60 238.7,60 238.7,53.2 233.8,48.1 236.6,45.3 "
   id="polygon138"
   transform="translate(-232.6,-43)" />
<polygon
   class="st3"
   points="251.9,57.3 251.2,58.1 251.1,48.6 251.9,48.5 "
   id="polygon139"
   transform="translate(-232.6,-43)" />
<path
   class="st3"
   d="m 19,15.5 0.8,-0.8 c 0,0 0.8,0.3 5.1,-0.7 l -0.7,1.4 -5.2,0.1"
   id="path139" />
<path
   class="st4"
   d="m 25.3,14.6 -0.6,1.2 c 0.4,0.1 0.8,0.1 1.2,0 l -0.6,-1.2"
   id="path140" />
<path
   class="st3"
   d="m 25.6,14 0.8,1.5 H 32 l -0.8,-0.7 c -1.5,0 -3.1,-0.2 -4.6,-0.6 -0.3,-0.1 -0.6,-0.1 -1,-0.2"
   id="path141" />
<polygon
   class="st3"
   points="265,48.6 264.5,48.5 264.5,57.6 265,58 "
   id="polygon141"
   transform="translate(-232.6,-43)" />
<path
   class="st5"
   d="m 40.1,4.3 c 0,0 0.3,-0.7 1.5,-0.4 0.1,-0.4 0.2,-0.8 0.5,-1.2 0.3,0.3 0.4,0.7 0.4,1.2 0.5,0 1,0.2 1.5,0.5 -0.4,0 -0.8,0.3 -1.1,0.6 v 3.6 h 3.6 c 0.4,-0.3 0.6,-0.8 0.6,-1.3 0,0 0.7,0.3 0.5,1.6 0.4,0 0.9,0.2 1.1,0.5 -0.3,0.3 -0.7,0.4 -1.1,0.4 0,0.5 -0.2,1.1 -0.5,1.5 0,0 -0.1,-0.9 -0.7,-1.1 h -3.5 v 3.5 c 0.3,0.5 0.7,0.7 1.3,0.7 0,0 -0.3,0.8 -1.5,0.5 0,0 -0.1,1.1 -0.4,1.3 -0.4,-0.3 -0.6,-0.8 -0.6,-1.2 0,0 -1.2,-0.2 -1.3,-0.6 0.4,-0.1 0.8,-0.3 1,-0.7 v -3.5 h -3.6 c 0,0 -0.8,0.5 -0.6,1.2 0,0 -0.6,0 -0.6,-1.6 -0.4,0 -0.8,-0.2 -1.2,-0.5 0.3,-0.3 0.8,-0.5 1.2,-0.5 0,-0.5 0.2,-1 0.5,-1.3 0,0.4 0.3,0.8 0.7,1 h 3.6 V 5 C 41,4.6 40.5,4.3 40.1,4.3"
   id="path142" />
<path
   class="st0"
   d="m 18.1,36.7 c 0.5,0.1 1,-0.1 1.4,-0.3 0.1,0.2 0.1,0.4 0.1,0.7 0,-0.1 -1.3,0.5 -1.5,-0.4"
   id="path143" />
<path
   class="st0"
   d="m 19.2,40.1 v 1.1 l 0.3,-0.4 0.4,-0.1 0.3,0.3 -0.1,0.4 1,-0.3 c 0,0 0.9,-0.1 1.3,-1.3 -0.3,-0.3 -0.2,-0.8 0.1,-1.1 0,0 0,0 0,0 -0.2,-1.4 -0.1,-2.7 0.1,-4.1 0.5,-0.3 0.7,-0.8 0.5,-1.3 0.3,-0.3 0.3,-0.8 0.1,-1.2 0.2,-0.3 0.3,-0.7 0.1,-1.1 0.3,-0.3 0.4,-0.8 0.2,-1.2 0.2,-0.3 0.3,-0.7 0.1,-1.1 0.2,-0.3 0.2,-0.7 0.1,-1 0,0 0.4,-0.1 0.4,-0.4 h 2.1 V 26.9 H 24 c -0.2,0 -0.3,-0.1 -0.3,-0.3 l -0.7,0.5 -0.3,0.9 -0.1,1.3 -0.1,1.3 -0.2,1.7 -0.3,1 -0.4,2.1 -0.2,1.4 -0.1,1.6 0.1,1.6 -0.3,0.4 -0.6,0.4 -0.4,-0.5 h -0.2 l -0.1,-0.2 -0.1,-0.6 -0.3,0.1 -0.2,0.5"
   id="path144" />
<path
   class="st0"
   d="m 28.4,32.9 c 0,0.7 0.6,1.3 1.3,1.3 h 0.2 L 30,33.6 29,33.1 28.7,32.9 h -0.3"
   id="path145" />
<path
   class="st0"
   d="m 28.9,40.3 v 0.6 l 0.3,-0.2 v 0.6 h 0.9 c 0.6,0 1.2,-0.3 1.6,-0.8 0.2,-0.3 0.3,-0.6 0.1,-0.9 0,0 0.5,0 0.6,-0.7 0,-0.2 0.1,-0.4 0.2,-0.5 0,0 -0.1,-2.5 0,-3.8 0,0 1,0.5 1.5,-0.2 0.2,-0.4 0.3,-0.8 0.3,-1.2 0.2,-0.2 0.2,-0.5 0.1,-0.8 0.1,-0.3 0.1,-0.6 -0.1,-0.8 0.2,-0.4 0.1,-0.8 -0.2,-1.2 0.1,-0.4 0,-0.8 -0.2,-1.1 0.1,-0.4 0,-0.8 -0.3,-1.1 0.1,-0.4 0,-0.9 -0.3,-1.2 0,-0.4 -0.1,-0.7 -0.4,-1 0,-0.5 -0.3,-0.9 -0.7,-1.2 C 32.2,24.4 31.9,24 31.5,23.9 31.4,23.5 31.1,23.2 30.7,23.1 30.6,22.8 30.4,22.5 30.1,22.4 30,21.9 29.6,21.6 29.1,21.6 29,21.3 28.6,21 28.3,21 c 0,0 0,-0.3 -0.9,-0.4 0.3,-0.6 0.2,-1.3 -0.3,-1.8 -0.4,-0.3 -0.9,-0.4 -1.4,-0.4 l 0.9,0.8 0.4,0.7 -0.2,0.7 c 0,0.1 0.1,0.1 0.1,0.2 l 1,2.1 1.8,0.3 1,0.7 0.5,0.5 0.5,0.7 0.4,0.7 0.6,0.9 0.3,1.2 0.3,1 0.2,1 0.2,1 v 0.6 l -0.1,1.7 -0.4,0.6 -0.8,0.2 -0.2,0.2 -0.3,0.4 -0.1,2.7 v 0.7 0.6 l -0.2,0.5 -0.4,0.1 h -0.8 l -0.8,0.4 -0.7,0.7"
   id="path146" />
<rect
   x="24.500006"
   y="21.199997"
   class="st3"
   width="1.7"
   height="5.1999998"
   id="rect146" />
<path
   class="st4"
   d="m 26.7,20.7 c 0.1,-0.2 0.2,-0.4 0.2,-0.7 0,-0.8 -0.7,-1.5 -1.5,-1.5 -0.8,0 -1.5,0.7 -1.5,1.5 0,0.2 0.1,0.4 0.1,0.6 h 1 c -0.2,-0.1 -0.4,-0.4 -0.4,-0.7 0,-0.4 0.3,-0.7 0.7,-0.7 0.4,0 0.7,0.3 0.7,0.7 0,0.3 -0.2,0.5 -0.4,0.7 l 1.1,0.1"
   id="path147" />
<path
   class="st0"
   d="m 7.9,38.3 c -0.5,0.1 -0.8,0.5 -0.9,1 0,0 -0.2,0.8 0.8,1.1 0,0 2.3,0.4 2.8,0.6 0,0 3.5,0.6 8.8,3.9 v -0.4 h 0.9 L 20.4,44.3 16,41.5 14,40.9 10.6,39.7 8.3,39.2 7.9,38.8 v -0.5"
   id="path148" />
<path
   class="st0"
   d="m 6.5,41.2 c -0.6,0.1 -1,0.6 -1,1.2 0,0 -0.2,0.9 1,1.1 4.5,0.4 8.9,1.8 12.9,4 V 46.6 L 18.7,45.8 17.2,44.9 14.7,44 11,43 9.5,42.7 7.2,42.3 6.5,42.1 v -0.9"
   id="path149" />
<path
   class="st0"
   d="m 18.5,52.9 v 0.8 h 16.2 l -5.5,-6 h 3 l 1.6,2.4 0.2,0.6 v 0.4 c 0.5,0.7 1.2,1.2 2.1,1.4 v -3.1 c -0.4,0.2 -0.9,0 -1.1,-0.5 0,-0.1 0,-0.1 0,-0.2 L 34.4,47 c 1.5,-0.6 3,-1.4 4.2,-2.5 0,0 0.8,0.4 1.1,0.5 0,0 1.7,0.8 2.5,-0.4 0,0 1,-1.7 -1.2,-2.9 L 36.9,39.4 C 36.1,39 35.1,39.3 34.6,40.1 l 3.9,3.4 v 0.2 L 38.2,44 33.8,44.8 33.6,44.6 33,42.5 h -0.6 l -0.3,0.5 0.9,3.7 -0.7,0.4 c 0,0 -0.4,-0.4 -0.3,-0.2 0.1,0.2 -4.6,0 -4.6,0 l 0.4,0.6 1.6,1.8 2.1,2.9 0.7,0.4 H 20.6 l -2.1,0.3"
   id="path150" />
<polygon
   class="st5"
   points="240.8,50.3 244.9,46.2 246.8,48.2 242.1,52.8 242.1,59.3 239.3,59.3 239.3,52.9 234.6,48.1 236.5,46.1 "
   id="polygon150"
   transform="translate(-232.6,-43)" />
<path
   class="st3"
   d="M 7.6,7.7 H 8.7 L 8.5,8.7 9.2,8.3 V 9.5 L 8.6,9.3 v 1.8 C 8.5,11.3 8.4,11.5 8.2,11.7 8.1,11.7 8,11.5 7.8,11.1 V 9.3 L 7.1,9.5 V 8.3 l 0.7,0.4 -0.2,-1"
   id="path151" />
<path
   class="st3"
   d="M 7.4,12.2 H 8.6 L 8.4,13 9.1,12.8 v 1.1 L 8.4,13.7 v 1.9 C 8.3,16 8.2,16.1 8,16.1 7.8,16 7.7,15.8 7.6,15.6 V 13.7 L 7,13.9 V 12.8 L 7.7,13 7.4,12.2"
   id="path152" />
<path
   class="st3"
   d="M 3.1,5.2 3.9,4.4 4.4,5.1 4.6,4.4 5.4,5.2 4.7,5.4 6.1,6.8 C 6.3,7 6.3,7.3 6.3,7.5 6,7.5 5.8,7.4 5.6,7.3 L 4.2,6 4,6.6 3.2,5.8 3.9,5.6 3.1,5.2"
   id="path153" />
<path
   class="st3"
   d="M 12.2,4.3 13,5.1 12.3,5.6 13,5.8 12.2,6.6 11.8,6 10.5,7.4 C 10.3,7.5 10,7.5 9.8,7.5 9.8,7.3 9.9,7.1 9.9,6.9 L 11.4,5.5 10.8,5.1 11.5,4.3 11.9,5 12.2,4.3"
   id="path154" />
<path
   class="st3"
   d="m 19.8,45 v 2 h 12.1 c 0,0 1,4.5 3.7,4.8 v -1.9 c 0,0 -0.8,0.2 -1.3,-1.2 l -0.7,-2.1 c 1.7,-0.6 3.2,-1.5 4.6,-2.7 l -1.8,-1 c -1,0.7 -2.1,1.3 -3.3,1.8 l -0.7,-2.3 -1.8,0.4 0.7,2.1 -11.5,0.1"
   id="path155" />
<polygon
   class="st3"
   points="258.5,91.2 258.5,90.5 254.5,90.5 254.5,91.2 "
   id="polygon155"
   transform="translate(-232.6,-43)" />
<path
   class="st3"
   d="m 19.9,47.5 v 4.1 h 9.2 c 0,0 0.5,0 0.5,-0.5 0,0 0.1,-0.3 -0.4,-0.8 l -2.7,-2.9 v 1.4 h -5.3 v -1.3 h -1.3"
   id="path156" />
<path
   class="st3"
   d="m 18.5,52.2 v 0.7 h 14.3 l -5,-5.4 h -0.4 l 2.5,2.7 c 0.3,0.4 0.4,0.9 0.3,1.4 0,0 -0.2,0.6 -1.1,0.6 H 18.5"
   id="path157" />
<path
   class="st3"
   d="m 35.1,41.8 c -0.5,-0.3 -0.8,-1 -0.5,-1.6 0,0 0.4,-0.8 1.7,-0.4 l 4.8,2.7 c 0,0 1.2,0.8 0.7,1.8 0,0 -0.4,0.8 -1.9,0.1 l -4.8,-2.6"
   id="path158" />
<path
   class="st3"
   d="m 11.2,41.9 c 0.4,0.1 1.7,0.5 1.7,0.5 C 13,42.2 14,41.3 14,41.3 13.8,41.2 12.5,40.7 12.5,40.7 l -1.3,1.2 M 6.3,42.6 C 5.8,42.4 5.9,41.8 5.9,41.8 c 0,-0.4 0.3,-0.7 0.7,-0.7 0,0 0,0 0,0 1,0.1 3,0.5 3,0.5 l 1.3,-1.4 C 9.9,39.9 8.9,39.6 7.8,39.5 7.5,39.4 7.3,39.1 7.3,38.7 7.5,38 8,38.1 8,38.1 c 5.1,0.9 10,3 14.1,6.2 h -2 c -1.6,-1.1 -3.3,-2.1 -5.1,-2.9 -0.2,0.2 -1,1.1 -1,1.1 1.8,0.6 3.5,1.4 5.2,2.2 v 1.6 C 15.3,44.3 10.9,43 6.3,42.6"
   id="path159" />
<polygon
   class="st2"
   points="272.6,86.8 273.1,86.3 272.6,85.8 272.1,86.3 "
   id="polygon159"
   transform="translate(-232.6,-43)" />
<polygon
   class="st2"
   points="268.3,83.9 268.8,83.4 269.2,83.9 268.8,84.4 "
   id="polygon160"
   transform="translate(-232.6,-43)" />
<polygon
   class="st2"
   points="270.6,86.1 271.7,85.1 270.7,84.1 269.6,85.1 "
   id="polygon161"
   transform="translate(-232.6,-43)" />
<polygon
   class="st3"
   points="270.6,85.2 270.9,85.1 270.6,84.9 270.5,85.1 "
   id="polygon162"
   transform="translate(-232.6,-43)" />
<path
   class="st4"
   d="m 16.9,30.2 c 0,-0.4 0.2,-0.7 0.5,-1 0,0 -0.2,-0.8 0.3,-1 0,0 -0.2,-0.8 0.5,-1 0,0 0,-0.8 0.6,-1 0,-0.4 0.2,-0.7 0.6,-0.9 -0.1,-0.4 0.2,-0.8 0.6,-0.9 0,0 0,-1.1 0.9,-1.1 0.1,-0.5 0.6,-0.9 1.1,-0.9 0.2,-0.4 0.6,-0.7 1.1,-0.7 0.2,-0.3 0.6,-0.6 1,-0.6 v 5.8 c 0,0 -0.2,0.8 -0.6,0.6 0,0 0.5,0.9 0,1.2 0,0 0.5,0.8 -0.2,1 0,0 0.3,0.9 -0.2,1.3 0,0 0.4,0.8 -0.2,1.1 0,0 0.5,0.7 -0.1,1.1 0,0 0.5,1.1 -0.4,1.2 0,0 -0.6,2.9 -0.2,4.3 0,0 -0.6,0.3 -0.2,1.3 0,0.4 -0.3,0.7 -0.6,0.8 l -0.6,0.1 0.4,-0.7 -0.1,-0.1 -0.5,0.6 -0.2,-0.3 c 0.2,-0.2 0.3,-0.5 0.4,-0.8 0,0 0.6,0 0.4,-0.5 0.1,-0.2 0.1,-0.4 0,-0.6 0.2,-1.3 0.2,-2.7 0,-4 0.1,0 0.2,0 0.3,0 0,0 -0.9,-0.3 -0.6,-1.6 0,0 -0.8,-0.1 -0.1,-0.6 0,0 -0.8,-0.4 0.1,-0.9 0,0 -0.8,-0.4 0,-0.9 -0.4,-0.1 -0.7,-0.5 -0.6,-0.9 0,0 0,0 0,-0.1 -0.3,0.3 -0.4,0.8 -0.3,1.2 -0.2,-0.2 -0.5,-0.2 -0.7,-0.2 -0.5,-0.2 -1.1,-0.2 -1.5,0.2 -0.5,-0.2 -0.8,-0.3 -0.9,-0.5"
   id="path162" />
<path
   class="st4"
   d="m 15.8,30.5 c 0.6,0 1.2,0.3 1.5,0.9 0,0 0.4,1 1,0.7 0,0 0.4,0 0.7,-0.9 0,0 0.2,-0.5 0.4,-0.1 0.2,0.4 0.2,0.9 -0.1,1.2 -0.3,0.4 -0.8,0.6 -1.4,0.5 0,0 -0.7,0 -1.2,-1 -0.1,-0.4 -0.4,-0.9 -0.9,-1.3"
   id="path163" />
<path
   class="st4"
   d="m 17.5,33.2 c 0.6,0.2 1.2,0.1 1.7,-0.2 0.2,0.3 0.2,0.7 0.2,1.1 0,0 -0.9,0.2 -0.4,1.4 0,0 -0.2,-0.2 -0.5,-0.1 -0.1,0.1 -0.1,0.3 0,0.5 l 0.2,0.4 c 0,0 -0.5,0.4 -1.1,-0.8 0,0 -0.3,-1 -1.1,-1.2 0.1,-0.2 0.2,-0.3 0.2,-0.5 0.4,-0.1 0.7,-0.3 0.8,-0.6"
   id="path164" />
<path
   class="st4"
   d="m 17.7,31.1 0.2,0.4 c 0,0 0.1,0.3 0.4,0 0.2,-0.2 0.3,-0.4 0.4,-0.7 0,0.1 -0.4,-0.1 -1,0.3"
   id="path165" />
<path
   class="st4"
   d="M 15.7,31.3 C 15.4,31 15,30.9 14.6,30.9 c 0.3,0.3 0.6,0.7 0.8,1.1 0,0 0.2,-0.6 0.3,-0.7"
   id="path166" />
<path
   class="st4"
   d="m 19.7,34.4 c -0.1,0.1 -0.2,0.1 -0.2,0.2 -0.1,0.2 -0.1,0.4 0,0.6 0,0 0.5,0.8 0.1,1.2 0.2,0.9 0.2,1.8 0,2.7 -0.2,0.4 -0.3,0.7 -0.3,1.1 l 0.3,-0.5 h 0.2 l -0.1,0.6 0.4,-0.1 c 0.2,-0.3 0.3,-0.6 0.3,-0.9 0,0 -0.1,-0.5 0.3,-0.6 -0.1,-0.2 -0.1,-0.4 0,-0.6 0.3,-1.2 0.3,-2.5 -0.1,-3.7 -0.4,0.1 -0.7,0.1 -0.9,0"
   id="path167" />
<path
   class="st4"
   d="m 19.7,33.1 c 0,0.2 0.1,0.5 0.1,0.7 l 0.1,0.1 h 0.2 v -0.6 l -0.4,-0.2"
   id="path168" />
<path
   class="st4"
   d="m 26.6,26.9 c 0,0 0,0.8 0.5,1.1 -0.2,0.3 -0.1,0.7 0.2,1 0,0 -0.2,0.8 0.3,1.1 0,0 -0.2,0.7 0.2,1 -0.1,0.4 0,0.9 0.3,1.2 0,0 0,0.7 0.6,0.8 0,0 0.4,0.8 1,0.6 0,0 0.7,0.5 0.2,4.7 -0.3,0.1 -0.5,0.5 -0.4,0.8 0,0 -0.4,0.2 -0.6,1.2 H 29 l 1,-0.8 0.1,0.1 -0.7,1.1 0.9,-0.6 0.1,0.1 c -0.3,0.2 -0.5,0.4 -0.8,0.7 0,0 0.2,0.1 1.2,-0.2 0.2,-0.1 0.4,-0.2 0.5,-0.4 0,0 0.2,-0.1 0,-0.4 -0.1,-0.1 -0.2,-0.3 -0.2,-0.5 0.1,0 0.3,0 0.4,-0.1 0,0 0.1,0 0.2,-0.2 0,-0.2 0.1,-0.5 0.3,-0.6 0,0 -0.2,-4 0.1,-4.3 0,0 0.2,-0.8 -0.5,-1 0,0 0.8,-0.7 0.1,-1 0,0 0.8,-0.7 -0.1,-1.1 0,0 1,-0.7 0.3,-1.3 0.3,-0.3 0.2,-0.8 -0.1,-1.1 0,0 0.2,-1 -0.4,-1.1 0,0 0.5,-0.7 -0.1,-0.9 0,0 0.3,-1 -0.3,-1.3 0,0 0.8,0 0.9,1 0,0 0.5,0.2 0.1,0.9 0.3,0.3 0.5,0.8 0.3,1.2 0.3,0.4 0.3,0.8 0.1,1.2 0,0 0.5,0.8 -0.2,1.3 0.3,0.3 0.3,0.7 0.1,1 0.3,0.3 0.2,0.7 -0.1,1 0,0 0,0 0,0 0.2,0.3 0.2,0.7 0,1 0,0 0.8,0.7 1.4,0.1 0.3,-0.3 0.3,-0.7 0.2,-1.1 0,0 0.4,-0.4 0.2,-0.7 0.1,-0.2 0.1,-0.5 -0.1,-0.6 0.2,-0.4 0.1,-0.8 -0.1,-1.2 0,0 0.2,-0.8 -0.2,-1.1 0.1,-0.4 0,-0.8 -0.3,-1 0,0 0.2,-0.8 -0.3,-1.2 0,-0.4 -0.1,-0.8 -0.5,-1 0,-0.5 -0.3,-0.9 -0.7,-1.1 0,-0.4 -0.4,-0.8 -0.8,-0.9 -0.1,-0.4 -0.4,-0.7 -0.8,-0.8 0,-0.3 -0.2,-0.6 -0.5,-0.7 0,0 -0.1,-0.7 -1.1,-0.6 -0.1,-0.4 -0.4,-0.6 -0.8,-0.6 -0.2,-0.2 -0.5,-0.3 -0.8,-0.3 l -0.3,-0.2 v 5.8 c 0.1,-0.2 0.1,0 -0.1,0"
   id="path169" />
<path
   class="st2"
   d="m 27.3,25.8 c 0,0 -0.4,0.9 0.1,1.4 0,0 -0.1,0.7 0.2,0.8 0,0 -0.3,0.7 0.2,1 0,0 -0.1,0.9 0.4,1.2 0,0 -0.4,0.8 0.3,1.2 0,0 -0.1,0.6 0.4,0.8 0,0.4 0.4,0.8 0.8,0.8 0,0 0.4,0.7 1,0.4 0,0 -0.8,-0.4 -0.6,-0.8 0,0 -0.9,0 -0.7,-0.7 0,0 -0.7,-0.3 -0.4,-0.8 0,0 -0.6,-0.2 -0.3,-1 -0.3,-0.3 -0.4,-0.7 -0.2,-1.1 0,0 -0.6,-0.4 -0.3,-1 0,0 -0.5,-0.4 -0.2,-0.9 -0.5,-0.3 -0.8,-0.8 -0.7,-1.3"
   id="path170" />
<rect
   x="25.100012"
   y="21.099998"
   class="st4"
   width="0.60000002"
   height="5.3000002"
   id="rect170" />
<path
   class="st4"
   d="M 19.9,5.2 C 20.7,5.2 21.4,5 22,4.6 23,4 24.3,4.1 25.2,4.8 26.3,4.1 27.6,4.1 28.7,4.6 29.5,5 30.3,5.3 31.2,5.4 v 8.9 c -1,0 -1.9,0 -2.9,-0.2 -0.9,-0.2 -1.9,-0.4 -2.9,-0.5 V 5.4 L 25.1,5 24.8,5.4 v 8.3 c 0,0 -1.1,0.2 -2.4,0.4 -0.8,0.2 -1.7,0.3 -2.6,0.3 l 0.1,-9.2"
   id="path171" />
<path
   class="st2"
   d="m 17.5,34.1 c -0.1,0 -0.1,-0.1 -0.1,-0.2 v 0 c -0.1,0.2 0,0.5 0.1,0.7 l 0.2,-0.2 0.2,-0.2 v 0 0 c 0,0 0,0 0,-0.1 0.1,-0.2 0,-0.5 -0.2,-0.6 0,0 0,0 0,0 l -0.1,0.3 -0.1,0.3"
   id="path172" />
<path
   class="st2"
   d="m 30.1,39.7 c -0.2,-0.3 -0.2,-0.7 0.1,-1 0,-0.3 0.1,-0.6 0.3,-0.8 0.2,-1.2 0.2,-2.5 0,-3.8 -0.1,-0.2 -0.2,-0.4 -0.2,-0.7 0.2,0.3 0.4,0.5 0.8,0.5 0.1,1.3 0.1,2.6 0,3.9 0,0 -0.1,0.6 -0.2,0.7 0,0.1 0,0.2 0,0.3 -0.1,0.2 -0.2,0.3 -0.4,0.3 -0.3,0.2 -0.5,0.4 -0.4,0.6"
   id="path173" />
<path
   class="st4"
   d="m 16.1,31.7 0.4,0.7 c 0.2,0.3 0.4,0.5 0.7,0.7 -0.1,0.1 -0.3,0.1 -0.5,0.1 0,0 -0.4,-0.1 -0.4,0.3 0,0 0.1,0.3 0,0.4 -0.1,0.1 -0.1,0.2 -0.3,0.1 -0.1,-0.1 -0.1,-0.3 -0.1,-0.4 0,0 0.2,-0.2 0.2,-0.4 0,-0.1 -0.2,-0.2 -0.3,-0.2 v 0 c -0.3,-0.1 -0.3,-0.3 0,-0.4 0,0 0.5,0 0.3,-0.4 L 15.9,32 16.1,31.7"
   id="path174" />
<polygon
   class="st2"
   points="257.5,56.5 258.2,56.5 258.2,48.2 257.9,47.7 257.5,48.2 "
   id="polygon174"
   transform="translate(-232.6,-43)" />

<rect
   x="-138.60001"
   y="-33"
   class="st6"
   width="200"
   height="200"
   id="rect175" />
</svg>
