<?xml version="1.0" encoding="utf-8"?>
<!-- Generator: Adobe Illustrator 25.0.1, SVG Export Plug-In . SVG Version: 6.00 Build 0)  -->
<svg version="1.0" id="Layer_1" xmlns="http://www.w3.org/2000/svg" xmlns:xlink="http://www.w3.org/1999/xlink" x="0px" y="0px"
	 viewBox="0 0 388 220" style="enable-background:new 0 0 388 220;" xml:space="preserve">
<style type="text/css">
	.st0{fill:#231F20;}
	.st1{fill:none;stroke:#231F20;stroke-width:8.000000e-02;}
	.st2{fill:#853046;}
	.st3{fill:#D0BF7D;}
	.st4{fill:#FFFFFF;}
	.st5{fill:#00AEEF;}
	.st6{fill:none;}
</style>
<path class="st0" d="M115.9,159h-1c-1-0.1-2,0.7-2.1,1.7h-0.4l0.3-2.2c1.2,0,2.5,0,3.7,0c1.2,0,2.5,0,3.7,0l-0.3,2.1h-0.4
	c0-0.2,0-0.4,0.1-0.6c0-0.8-0.4-1-1.2-1H117l-1.3,6.7c0,0.2-0.1,0.4-0.1,0.6c0,0.5,0.4,0.7,0.7,0.7h0.3l-0.1,0.4c-0.5,0-1.1,0-1.7,0
	s-1,0-1.4,0l0.1-0.4h0.1c0.8,0,0.8-0.2,1.1-1.5L115.9,159"/>
<path class="st1" d="M115.9,159h-1c-1-0.1-2,0.7-2.1,1.7h-0.4l0.3-2.2c1.2,0,2.5,0,3.7,0c1.2,0,2.5,0,3.7,0l-0.3,2.1h-0.4
	c0-0.2,0-0.4,0.1-0.6c0-0.8-0.4-1-1.2-1H117l-1.3,6.7c0,0.2-0.1,0.4-0.1,0.6c0,0.5,0.4,0.7,0.7,0.7h0.3l-0.1,0.4c-0.5,0-1.1,0-1.7,0
	s-1,0-1.4,0l0.1-0.4h0.1c0.8,0,0.8-0.2,1.1-1.5L115.9,159z"/>
<path class="st0" d="M122.8,162.7c0-0.3-0.2-0.6-0.5-0.6c-0.9,0-1.8,1.5-1.9,2.2c0.2,0,0.4,0,0.5,0
	C121.9,164.4,122.7,163.6,122.8,162.7 M123.1,165.9c-0.5,0.9-1.5,1.4-2.5,1.6c-0.9,0-1.6-0.8-1.5-1.6c0,0,0-0.1,0-0.1
	c0-1.3,1.3-4,3.4-4c0.6-0.1,1.2,0.4,1.2,1c0,0,0,0.1,0,0.1c0,0.8-0.8,1.9-2.9,1.9c-0.2,0-0.4,0-0.7-0.1c-0.1,0.3-0.2,0.6-0.2,0.9
	c0,0.6,0.3,1.4,0.9,1.4c0.7,0,1.2-0.6,1.8-1.3L123.1,165.9z"/>
<path class="st1" d="M122.8,162.7c0-0.3-0.2-0.6-0.5-0.6c-0.9,0-1.8,1.5-1.9,2.2c0.2,0,0.4,0,0.5,0
	C121.9,164.4,122.7,163.7,122.8,162.7z M123.1,165.9c-0.5,0.9-1.5,1.4-2.5,1.6c-0.9,0-1.6-0.8-1.5-1.6c0,0,0-0.1,0-0.1
	c0-1.3,1.3-4,3.4-4c0.6-0.1,1.2,0.4,1.2,1c0,0,0,0.1,0,0.1c0,0.8-0.8,1.9-2.9,1.9c-0.2,0-0.4,0-0.7-0.1c-0.1,0.3-0.2,0.6-0.2,0.9
	c0,0.6,0.3,1.4,0.9,1.4c0.7,0,1.2-0.6,1.8-1.3L123.1,165.9z"/>
<path class="st0" d="M129.7,160.1c-0.1-0.9-0.2-1.2-1-1.2h-0.2l0.1-0.4c0.3,0,0.8,0,1.6,0c0.6,0,1.1,0,1.4,0l-0.1,0.4h-0.2
	c-0.4,0-0.7,0.1-0.7,0.6c0,0.2,0,0.4,0,0.6l0.4,5.7l0,0l3.7-7.5h0.3l0.4,7.6l0,0l3.2-5.4c0.3-0.3,0.4-0.7,0.5-1.2
	c0-0.3-0.3-0.4-0.7-0.4h-0.2l0.1-0.4c0.3,0,0.8,0,1.6,0c0.8,0,1.2,0,1.4,0l-0.1,0.4c-0.6-0.1-1.1,0.2-1.4,0.8l-5,7.8h-0.4l-0.4-6.8
	l0,0l-3.7,6.8h-0.4L129.7,160.1"/>
<path class="st1" d="M129.7,160.1c-0.1-0.9-0.2-1.2-1-1.2h-0.2l0.1-0.4c0.3,0,0.8,0,1.6,0c0.6,0,1.1,0,1.4,0l-0.1,0.4h-0.2
	c-0.4,0-0.7,0.1-0.7,0.6c0,0.2,0,0.4,0,0.6l0.4,5.7l0,0l3.7-7.5h0.3l0.4,7.6l0,0l3.2-5.4c0.3-0.3,0.4-0.7,0.5-1.2
	c0-0.3-0.3-0.4-0.7-0.4h-0.2l0.1-0.4c0.3,0,0.8,0,1.6,0c0.8,0,1.2,0,1.4,0l-0.1,0.4c-0.6-0.1-1.1,0.2-1.4,0.8l-5,7.8h-0.4l-0.4-6.8
	l0,0l-3.7,6.8h-0.4L129.7,160.1z"/>
<path class="st0" d="M143.1,159.1c0-0.2,0.1-0.3,0.1-0.5c0-0.2-0.1-0.3-0.3-0.3c0,0,0,0,0,0c-0.2,0-0.4,0-0.6,0.1l0.1-0.4l2-0.5
	l-1.5,6.9l0,0c0.6-1,1.8-2.7,2.9-2.7c0.4,0,0.8,0.2,0.8,0.6c0,0,0,0.1,0,0.1c0,0.2,0,0.4-0.1,0.6l-0.7,2.9c0,0.1-0.1,0.3-0.1,0.4
	c0,0.1,0.1,0.3,0.2,0.3c0,0,0,0,0.1,0c0.4,0,0.7-0.5,0.8-0.8l0.3,0.1c-0.1,0.4-0.8,1.5-1.6,1.5c-0.4,0-0.8-0.4-0.8-0.8
	c0,0,0,0,0-0.1c0-0.2,0-0.5,0.1-0.7l0.7-2.8c0-0.1,0.1-0.3,0.1-0.4c0-0.1-0.1-0.3-0.2-0.3c0,0,0,0,0,0c-0.6,0-1.6,1.3-2,1.9
	c-0.6,0.9-1,1.9-1.1,2.9l-1,0.2l1.8-8.4"/>
<path class="st1" d="M143.1,159.1c0-0.2,0.1-0.3,0.1-0.5c0-0.2-0.1-0.3-0.3-0.3c0,0,0,0,0,0c-0.2,0-0.4,0-0.6,0.1l0.1-0.4l2-0.5
	l-1.5,6.9l0,0c0.6-1,1.8-2.7,2.9-2.7c0.4,0,0.8,0.2,0.8,0.6c0,0,0,0.1,0,0.1c0,0.2,0,0.4-0.1,0.6l-0.7,2.9c0,0.1-0.1,0.3-0.1,0.4
	c0,0.1,0.1,0.3,0.2,0.3c0,0,0,0,0.1,0c0.4,0,0.7-0.5,0.8-0.8l0.3,0.1c-0.1,0.4-0.8,1.5-1.6,1.5c-0.4,0-0.8-0.4-0.8-0.8
	c0,0,0,0,0-0.1c0-0.2,0-0.5,0.1-0.7l0.7-2.8c0-0.1,0.1-0.3,0.1-0.4c0-0.1-0.1-0.3-0.2-0.3c0,0,0,0,0,0c-0.6,0-1.6,1.3-2,1.9
	c-0.6,0.9-1,1.9-1.1,2.9l-1,0.2L143.1,159.1z"/>
<path class="st0" d="M149.7,166.9c1,0,3.1-3.1,3.2-4.7c-0.1,0-0.3,0-0.4,0c-1-0.1-1.9,0.5-2.3,1.3c-0.5,0.8-0.8,1.7-0.9,2.6
	C149.2,166.5,149.3,167,149.7,166.9 M154.4,166c-0.4,0.6-1.1,1.6-1.9,1.6c-0.5,0-0.6-0.4-0.6-0.7c0-0.5,0.1-0.9,0.2-1.4l0.2-0.8l0,0
	c-0.5,1-1.7,2.9-3.1,2.9c-0.8,0-1.1-0.7-1.1-1.4c0-1.3,1.5-4.4,4.4-4.4h0.9c0.1,0,0.3,0,0.4,0l-0.9,4c0,0.2-0.1,0.4-0.1,0.6
	c0,0.1,0.1,0.3,0.2,0.3c0,0,0,0,0,0c0.2,0,0.6-0.5,0.8-0.8L154.4,166z"/>
<path class="st1" d="M149.7,166.9c1,0,3.1-3.1,3.2-4.7c-0.1,0-0.3,0-0.4,0c-1-0.1-1.9,0.5-2.3,1.3c-0.5,0.8-0.8,1.7-0.9,2.6
	C149.2,166.5,149.3,166.9,149.7,166.9z M154.4,165.9c-0.4,0.6-1.1,1.6-1.9,1.6c-0.5,0-0.6-0.4-0.6-0.7c0-0.5,0.1-0.9,0.2-1.4
	l0.2-0.8l0,0c-0.5,1-1.7,2.9-3.1,2.9c-0.8,0-1.1-0.7-1.1-1.4c0-1.3,1.5-4.4,4.4-4.4h0.9c0.1,0,0.3,0,0.4,0l-0.9,4
	c0,0.2-0.1,0.4-0.1,0.6c0,0.1,0.1,0.3,0.2,0.3c0,0,0,0,0,0c0.2,0,0.6-0.5,0.8-0.8L154.4,165.9z"/>
<path class="st0" d="M156.7,163.5c0.1-0.2,0.1-0.5,0.1-0.7c0-0.1-0.1-0.2-0.2-0.2s-0.6,0.3-1,0.8l-0.3-0.2c0.1-0.1,1.1-1.4,2-1.4
	c0.4,0,0.5,0.3,0.5,0.7c-0.1,0.6-0.2,1.1-0.4,1.7l0,0c0.1-0.3,0.2-0.4,0.3-0.6c0.3-0.5,1.1-1.9,2.3-1.9c0.1,0,0.2,0,0.3,0l-0.2,1.1
	c-0.2-0.1-0.3-0.1-0.5-0.1c-0.8,0.1-1.5,0.6-1.9,1.4c-0.5,1-0.8,2.1-1,3.2l-1,0.2L156.7,163.5"/>
<path class="st1" d="M156.7,163.5c0.1-0.2,0.1-0.5,0.1-0.7c0-0.1-0.1-0.2-0.2-0.2s-0.6,0.3-1,0.8l-0.3-0.2c0.1-0.1,1.1-1.4,2-1.4
	c0.4,0,0.5,0.3,0.5,0.7c-0.1,0.6-0.2,1.1-0.4,1.7l0,0c0.1-0.3,0.2-0.4,0.3-0.6c0.3-0.5,1.1-1.9,2.3-1.9c0.1,0,0.2,0,0.3,0l-0.2,1.1
	c-0.2-0.1-0.3-0.1-0.5-0.1c-0.8,0.1-1.5,0.6-1.9,1.4c-0.5,1-0.8,2.1-1,3.2l-1,0.2L156.7,163.5z"/>
<path class="st0" d="M164.1,162.7c0-0.3-0.2-0.6-0.5-0.6c-0.9,0-1.8,1.5-1.9,2.2c0.2,0,0.4,0,0.5,0
	C163.2,164.4,164,163.6,164.1,162.7 M164.4,165.9c-0.5,0.9-1.4,1.4-2.4,1.6c-0.9,0-1.6-0.8-1.5-1.6c0,0,0-0.1,0-0.1
	c0-1.3,1.3-4,3.4-4c0.6-0.1,1.2,0.4,1.2,1c0,0,0,0.1,0,0.1c0,0.8-0.8,1.9-2.9,1.9c-0.2,0-0.4,0-0.7-0.1c-0.1,0.3-0.2,0.6-0.2,0.9
	c0,0.6,0.3,1.4,0.9,1.4s1.2-0.6,1.8-1.3L164.4,165.9z"/>
<path class="st1" d="M164.1,162.7c0-0.3-0.2-0.6-0.5-0.6c-0.9,0-1.8,1.5-1.9,2.2c0.2,0,0.4,0,0.5,0
	C163.2,164.4,164,163.7,164.1,162.7z M164.4,165.9c-0.5,0.9-1.4,1.4-2.4,1.6c-0.9,0-1.6-0.8-1.5-1.6c0,0,0-0.1,0-0.1
	c0-1.3,1.3-4,3.4-4c0.6-0.1,1.2,0.4,1.2,1c0,0,0,0.1,0,0.1c0,0.8-0.8,1.9-2.9,1.9c-0.2,0-0.4,0-0.7-0.1c-0.1,0.3-0.2,0.6-0.2,0.9
	c0,0.6,0.3,1.4,0.9,1.4s1.2-0.6,1.8-1.3L164.4,165.9z"/>
<path class="st0" d="M171,160.1c-0.1-0.9-0.2-1.2-1-1.2h-0.2l0.1-0.4c0.3,0,0.8,0,1.6,0c0.6,0,1.1,0,1.4,0l-0.1,0.4h-0.2
	c-0.4,0-0.7,0.1-0.7,0.6c0,0.2,0,0.4,0,0.6l0.4,5.7l0,0l3.7-7.5h0.3l0.4,7.6l0,0l3.2-5.4c0.3-0.3,0.4-0.7,0.5-1.2
	c0-0.3-0.3-0.4-0.7-0.4h-0.2l0.1-0.4c0.3,0,0.8,0,1.6,0s1.2,0,1.4,0l-0.1,0.4c-0.6-0.1-1.1,0.2-1.4,0.8l-5,7.8H176l-0.4-6.8l0,0
	l-3.7,6.8h-0.4L171,160.1"/>
<path class="st1" d="M171,160.1c-0.1-0.9-0.2-1.2-1-1.2h-0.2l0.1-0.4c0.3,0,0.8,0,1.6,0c0.6,0,1.1,0,1.4,0l-0.1,0.4h-0.2
	c-0.4,0-0.7,0.1-0.7,0.6c0,0.2,0,0.4,0,0.6l0.4,5.7l0,0l3.7-7.5h0.3l0.4,7.6l0,0l3.2-5.4c0.3-0.3,0.4-0.7,0.5-1.2
	c0-0.3-0.3-0.4-0.7-0.4h-0.2l0.1-0.4c0.3,0,0.8,0,1.6,0s1.2,0,1.4,0l-0.1,0.4c-0.6-0.1-1.1,0.2-1.4,0.8l-5,7.8H176l-0.4-6.8l0,0
	l-3.7,6.8h-0.4L171,160.1z"/>
<path class="st0" d="M182.4,166.9c1,0,3-3.1,3.1-4.7c-0.1,0-0.3,0-0.4,0c-1-0.1-1.9,0.5-2.3,1.3c-0.5,0.8-0.8,1.7-0.9,2.6
	C181.8,166.5,181.9,167,182.4,166.9 M187.1,166c-0.4,0.6-1.1,1.6-1.8,1.6c-0.5,0-0.6-0.4-0.6-0.7c0-0.5,0.1-0.9,0.2-1.4l0.2-0.8l0,0
	c-0.5,1-1.7,2.9-3.1,2.9c-0.8,0-1.1-0.7-1.1-1.4c0-1.3,1.5-4.4,4.4-4.4h0.9c0.1,0,0.3,0,0.4,0l-0.9,4c0,0.2-0.1,0.4-0.1,0.6
	c0,0.1,0.1,0.3,0.2,0.3c0,0,0,0,0,0c0.3,0,0.6-0.5,0.9-0.8L187.1,166z"/>
<path class="st1" d="M182.4,166.9c1,0,3-3.1,3.1-4.7c-0.1,0-0.3,0-0.4,0c-1-0.1-1.9,0.5-2.3,1.3c-0.5,0.8-0.8,1.7-0.9,2.6
	C181.8,166.5,181.9,166.9,182.4,166.9z M187.1,165.9c-0.4,0.6-1.1,1.6-1.8,1.6c-0.5,0-0.6-0.4-0.6-0.7c0-0.5,0.1-0.9,0.2-1.4
	l0.2-0.8l0,0c-0.5,1-1.7,2.9-3.1,2.9c-0.8,0-1.1-0.7-1.1-1.4c0-1.3,1.5-4.4,4.4-4.4h0.9c0.1,0,0.3,0,0.4,0l-0.9,4
	c0,0.2-0.1,0.4-0.1,0.6c0,0.1,0.1,0.3,0.2,0.3c0,0,0,0,0,0c0.3,0,0.6-0.5,0.9-0.8L187.1,165.9z"/>
<path class="st0" d="M187.9,163.2c0.1-0.2,1.1-1.5,1.8-1.5c0.4,0,0.5,0.2,0.5,0.7c-0.1,0.7-0.2,1.4-0.4,2.1l0,0
	c0.3-0.6,1.6-2.9,2.8-2.9c0.7,0,0.9,0.4,0.9,0.8c0,0.6-0.9,3.2-0.9,3.8c0,0.2,0.1,0.3,0.2,0.3c0,0,0,0,0,0c0.2,0,0.4-0.1,0.7-0.5
	l0.3-0.4l0.3,0.2c-0.6,0.8-1.2,1.5-1.9,1.5c-0.4,0-0.7-0.2-0.7-0.6c0-0.7,0.9-3.7,0.9-4.2c0-0.2-0.1-0.3-0.3-0.3c0,0,0,0,0,0
	c-0.4,0-1.2,0.9-1.8,1.9c-0.6,0.9-0.9,1.9-1.1,3l-1,0.2l0.8-3.4c0.1-0.4,0.2-0.8,0.2-1.3c0-0.2-0.1-0.3-0.2-0.3
	c-0.1,0-0.6,0.5-0.9,0.8L187.9,163.2"/>
<path class="st1" d="M187.9,163.2c0.1-0.2,1.1-1.5,1.8-1.5c0.4,0,0.5,0.2,0.5,0.7c-0.1,0.7-0.2,1.4-0.4,2.1l0,0
	c0.3-0.6,1.6-2.9,2.8-2.9c0.7,0,0.9,0.4,0.9,0.8c0,0.6-0.9,3.2-0.9,3.8c0,0.2,0.1,0.3,0.2,0.3c0,0,0,0,0,0c0.2,0,0.4-0.1,0.7-0.5
	l0.3-0.4l0.3,0.2c-0.6,0.8-1.2,1.5-1.9,1.5c-0.4,0-0.7-0.2-0.7-0.6c0-0.7,0.9-3.7,0.9-4.2c0-0.2-0.1-0.3-0.3-0.3c0,0,0,0,0,0
	c-0.4,0-1.2,0.9-1.8,1.9c-0.6,0.9-0.9,1.9-1.1,3l-1,0.2l0.8-3.4c0.1-0.4,0.2-0.8,0.2-1.3c0-0.2-0.1-0.3-0.2-0.3
	c-0.1,0-0.6,0.5-0.9,0.8L187.9,163.2z"/>
<path class="st0" d="M196.6,166.9c1,0,3-3.1,3.1-4.7c-0.1,0-0.3,0-0.4,0c-1-0.1-1.9,0.5-2.3,1.3c-0.5,0.8-0.8,1.7-0.9,2.6
	C196.1,166.5,196.1,167,196.6,166.9 M201.3,166c-0.4,0.6-1.1,1.6-1.8,1.6c-0.5,0-0.6-0.4-0.6-0.7c0-0.5,0.1-0.9,0.2-1.4l0.2-0.8l0,0
	c-0.5,1-1.7,2.9-3.1,2.9c-0.8,0-1.1-0.7-1.1-1.4c0-1.3,1.5-4.4,4.4-4.4h0.9c0.1,0,0.3,0,0.4,0l-0.8,4c0,0.2-0.1,0.4-0.1,0.6
	c0,0.1,0.1,0.3,0.2,0.3c0,0,0,0,0,0c0.3,0,0.6-0.5,0.8-0.8L201.3,166z"/>
<path class="st1" d="M196.6,166.9c1,0,3-3.1,3.1-4.7c-0.1,0-0.3,0-0.4,0c-1-0.1-1.9,0.5-2.3,1.3c-0.5,0.8-0.8,1.7-0.9,2.6
	C196.1,166.5,196.1,166.9,196.6,166.9z M201.3,165.9c-0.4,0.6-1.1,1.6-1.8,1.6c-0.5,0-0.6-0.4-0.6-0.7c0-0.5,0.1-0.9,0.2-1.4
	l0.2-0.8l0,0c-0.5,1-1.7,2.9-3.1,2.9c-0.8,0-1.1-0.7-1.1-1.4c0-1.3,1.5-4.4,4.4-4.4h0.9c0.1,0,0.3,0,0.4,0l-0.8,4
	c0,0.2-0.1,0.4-0.1,0.6c0,0.1,0.1,0.3,0.2,0.3c0,0,0,0,0,0c0.3,0,0.6-0.5,0.8-0.8L201.3,165.9z"/>
<path class="st0" d="M202.2,163.2c0.1-0.2,1.1-1.5,1.8-1.5c0.3,0,0.5,0.2,0.5,0.7c-0.1,0.7-0.2,1.4-0.4,2.1l0,0
	c0.3-0.6,1.6-2.9,2.8-2.9c0.7,0,0.9,0.4,0.9,0.8c0,0.6-0.9,3.2-0.9,3.8c0,0.2,0.1,0.3,0.2,0.3c0,0,0,0,0,0c0.2,0,0.4-0.1,0.7-0.5
	l0.3-0.4l0.3,0.2c-0.6,0.8-1.2,1.5-1.9,1.5c-0.4,0-0.7-0.2-0.7-0.6c0-0.7,1-3.7,1-4.2c0-0.2-0.1-0.3-0.3-0.3c0,0,0,0,0,0
	c-0.4,0-1.2,0.9-1.8,1.9c-0.6,0.9-0.9,1.9-1.1,3l-1,0.2l0.8-3.4c0.1-0.4,0.2-0.8,0.2-1.3c0-0.2-0.1-0.3-0.2-0.3s-0.6,0.5-0.9,0.8
	L202.2,163.2"/>
<path class="st1" d="M202.2,163.2c0.1-0.2,1.1-1.5,1.8-1.5c0.3,0,0.5,0.2,0.5,0.7c-0.1,0.7-0.2,1.4-0.4,2.1l0,0
	c0.3-0.6,1.6-2.9,2.8-2.9c0.7,0,0.9,0.4,0.9,0.8c0,0.6-0.9,3.2-0.9,3.8c0,0.2,0.1,0.3,0.2,0.3c0,0,0,0,0,0c0.2,0,0.4-0.1,0.7-0.5
	l0.3-0.4l0.3,0.2c-0.6,0.8-1.2,1.5-1.9,1.5c-0.4,0-0.7-0.2-0.7-0.6c0-0.7,1-3.7,1-4.2c0-0.2-0.1-0.3-0.3-0.3c0,0,0,0,0,0
	c-0.4,0-1.2,0.9-1.8,1.9c-0.6,0.9-0.9,1.9-1.1,3l-1,0.2l0.8-3.4c0.1-0.4,0.2-0.8,0.2-1.3c0-0.2-0.1-0.3-0.2-0.3s-0.6,0.5-0.9,0.8
	L202.2,163.2z"/>
<path class="st0" d="M212.2,162.1c-0.8,0-1.4,1.1-1.4,2.1c0,0.6,0.2,0.9,0.7,0.9c0.9,0,1.3-1.3,1.3-2S212.5,162.1,212.2,162.1
	 M210.8,167.6c-0.4,0-1.2,0.3-1.2,1.1c0,0.5,0.5,1.1,1.9,1.1c1,0,1.6-0.3,1.6-0.8S211.8,167.9,210.8,167.6 M214.8,161.1
	c0,0.1,0,0.2,0,0.3c0,0.6-0.3,1-1.1,1.2c0.1,0.2,0.1,0.4,0.1,0.6c0,2.2-3.2,2.3-3.2,3.1s3.3,0.8,3.3,2.4c0,0.8-0.8,1.5-2.6,1.5
	c-1.8,0-2.7-0.6-2.7-1.4s0.7-1.2,1.4-1.4l0,0c-0.4-0.2-0.7-0.4-0.7-0.7c0-0.6,0.7-0.9,1.7-1.2l0,0c-0.7,0-1.2-0.5-1.3-1.2
	c0,0,0-0.1,0-0.1c0.1-1.2,1.1-2.2,2.3-2.2c0.5,0,1,0.2,1.3,0.6c0.2,0,0.3-0.1,0.3-0.3c0-0.2-0.1-0.4-0.3-0.6L214.8,161.1z"/>
<path class="st1" d="M212.2,162.1c-0.8,0-1.4,1.1-1.4,2.1c0,0.6,0.2,0.9,0.7,0.9c0.9,0,1.3-1.3,1.3-2S212.5,162.1,212.2,162.1z
	 M210.8,167.6c-0.4,0-1.2,0.3-1.2,1.1c0,0.5,0.5,1.1,1.9,1.1c1,0,1.6-0.3,1.6-0.8S211.8,167.8,210.8,167.6z M214.8,161.1
	c0,0.1,0,0.2,0,0.3c0,0.6-0.3,1-1.1,1.2c0.1,0.2,0.1,0.4,0.1,0.6c0,2.2-3.2,2.3-3.2,3.1s3.3,0.8,3.3,2.4c0,0.8-0.8,1.5-2.6,1.5
	c-1.8,0-2.7-0.6-2.7-1.4s0.7-1.2,1.4-1.4l0,0c-0.4-0.2-0.7-0.4-0.7-0.7c0-0.6,0.7-0.9,1.7-1.2l0,0c-0.7,0-1.2-0.5-1.3-1.2
	c0,0,0-0.1,0-0.1c0.1-1.2,1.1-2.2,2.3-2.2c0.5,0,1,0.2,1.3,0.6c0.2,0,0.3-0.1,0.3-0.3c0-0.2-0.1-0.4-0.3-0.6L214.8,161.1z"/>
<path class="st0" d="M216.3,166.9c1,0,3.1-3.1,3.2-4.7c-0.1,0-0.3,0-0.4,0c-1-0.1-1.9,0.4-2.3,1.3c-0.5,0.8-0.8,1.7-0.9,2.6
	C215.8,166.5,215.9,167,216.3,166.9 M221,166c-0.4,0.6-1.1,1.6-1.8,1.6c-0.5,0-0.6-0.4-0.6-0.7c0-0.5,0.1-0.9,0.2-1.4l0.2-0.8l0,0
	c-0.5,1-1.7,2.9-3.1,2.9c-0.8,0-1.1-0.7-1.1-1.4c0-1.3,1.5-4.4,4.4-4.4h0.9c0.1,0,0.3,0,0.4,0l-0.9,4c0,0.2-0.1,0.4-0.1,0.6
	c0,0.1,0.1,0.3,0.2,0.3c0,0,0,0,0,0c0.3,0,0.6-0.5,0.8-0.8L221,166z"/>
<path class="st1" d="M216.3,166.9c1,0,3.1-3.1,3.2-4.7c-0.1,0-0.3,0-0.4,0c-1-0.1-1.9,0.4-2.3,1.3c-0.5,0.8-0.8,1.7-0.9,2.6
	C215.8,166.5,215.9,166.9,216.3,166.9z M221,165.9c-0.4,0.6-1.1,1.6-1.8,1.6c-0.5,0-0.6-0.4-0.6-0.7c0-0.5,0.1-0.9,0.2-1.4l0.2-0.8
	l0,0c-0.5,1-1.7,2.9-3.1,2.9c-0.8,0-1.1-0.7-1.1-1.4c0-1.3,1.5-4.4,4.4-4.4h0.9c0.1,0,0.3,0,0.4,0l-0.9,4c0,0.2-0.1,0.4-0.1,0.6
	c0,0.1,0.1,0.3,0.2,0.3c0,0,0,0,0,0c0.3,0,0.6-0.5,0.8-0.8L221,165.9z"/>
<path class="st0" d="M229,162.1c-1.3,0-2.1,2.2-2.1,3.6c0,1,0.3,1.5,0.9,1.5c1.5,0,2.2-3,2.2-3.9C230,162.3,229.4,162.1,229,162.1
	 M229,161.7c1-0.1,1.8,0.6,1.9,1.6c0,0.1,0,0.2,0,0.3c0,1.6-1.3,3.9-3.2,3.9c-1.1,0-1.9-0.9-1.9-2c0,0,0-0.1,0-0.1
	C225.9,163.4,227.5,161.7,229,161.7"/>
<path class="st1" d="M229,162.1c-1.3,0-2.1,2.2-2.1,3.6c0,1,0.3,1.5,0.9,1.5c1.5,0,2.2-3,2.2-3.9C229.9,162.2,229.4,162.1,229,162.1
	z M229,161.7c1-0.1,1.8,0.6,1.9,1.6c0,0.1,0,0.2,0,0.3c0,1.6-1.3,3.9-3.2,3.9c-1.1,0-1.9-0.9-1.9-2c0,0,0-0.1,0-0.1
	C225.9,163.4,227.5,161.7,229,161.7z"/>
<path class="st0" d="M237.1,160.1c-0.1-0.9-0.2-1.2-1-1.2H236l0.1-0.4c0.3,0,0.8,0,1.6,0c0.6,0,1.1,0,1.4,0l-0.1,0.4h-0.2
	c-0.4,0-0.7,0.1-0.7,0.6c0,0.2,0,0.4,0,0.6l0.4,5.7l0,0l3.7-7.5h0.4l0.4,7.6l0,0l3.2-5.4c0.3-0.3,0.4-0.7,0.5-1.2
	c0-0.3-0.3-0.4-0.7-0.4H246l0.1-0.4c0.3,0,0.8,0,1.6,0s1.2,0,1.4,0l-0.1,0.4c-0.6-0.1-1.1,0.2-1.4,0.8l-5,7.8h-0.4l-0.4-6.8l0,0
	l-3.7,6.8h-0.4L237.1,160.1"/>
<path class="st1" d="M237.1,160.1c-0.1-0.9-0.2-1.2-1-1.2H236l0.1-0.4c0.3,0,0.8,0,1.6,0c0.6,0,1.1,0,1.4,0l-0.1,0.4h-0.2
	c-0.4,0-0.7,0.1-0.7,0.6c0,0.2,0,0.4,0,0.6l0.4,5.7l0,0l3.7-7.5h0.4l0.4,7.6l0,0l3.2-5.4c0.3-0.3,0.4-0.7,0.5-1.2
	c0-0.3-0.3-0.4-0.7-0.4H246l0.1-0.4c0.3,0,0.8,0,1.6,0s1.2,0,1.4,0l-0.1,0.4c-0.6-0.1-1.1,0.2-1.4,0.8l-5,7.8h-0.4l-0.4-6.8l0,0
	l-3.7,6.8h-0.4L237.1,160.1z"/>
<path class="st0" d="M248.5,166.9c1,0,3-3.1,3.1-4.7c-0.1,0-0.3,0-0.4,0c-1-0.1-1.9,0.4-2.3,1.3c-0.5,0.8-0.8,1.7-0.9,2.6
	C248,166.5,248.1,167,248.5,166.9 M253.2,166c-0.4,0.6-1.1,1.6-1.9,1.6c-0.5,0-0.6-0.4-0.6-0.7c0-0.5,0.1-0.9,0.2-1.4l0.2-0.8l0,0
	c-0.5,1-1.7,2.9-3.1,2.9c-0.8,0-1.1-0.7-1.1-1.4c0-1.3,1.5-4.4,4.4-4.4h0.9c0.1,0,0.3,0,0.4,0l-0.9,4c0,0.2-0.1,0.4-0.1,0.6
	c0,0.1,0.1,0.3,0.2,0.3c0,0,0,0,0,0c0.3,0,0.6-0.5,0.9-0.8L253.2,166z"/>
<path class="st1" d="M248.5,166.9c1,0,3-3.1,3.1-4.7c-0.1,0-0.3,0-0.4,0c-1-0.1-1.9,0.4-2.3,1.3c-0.5,0.8-0.8,1.7-0.9,2.6
	C248,166.5,248.1,166.9,248.5,166.9z M253.2,165.9c-0.4,0.6-1.1,1.6-1.9,1.6c-0.5,0-0.6-0.4-0.6-0.7c0-0.5,0.1-0.9,0.2-1.4l0.2-0.8
	l0,0c-0.5,1-1.7,2.9-3.1,2.9c-0.8,0-1.1-0.7-1.1-1.4c0-1.3,1.5-4.4,4.4-4.4h0.9c0.1,0,0.3,0,0.4,0l-0.9,4c0,0.2-0.1,0.4-0.1,0.6
	c0,0.1,0.1,0.3,0.2,0.3c0,0,0,0,0,0c0.3,0,0.6-0.5,0.9-0.8L253.2,165.9z"/>
<path class="st0" d="M256.5,159.1c0.2,0,0.4,0.1,0.5,0.4c0,0,0,0.1,0,0.1c0,0.5-0.3,0.8-0.8,0.9c-0.2,0-0.5-0.2-0.5-0.4c0,0,0,0,0,0
	C255.8,159.5,256.1,159.1,256.5,159.1 M255.4,163.3c0.1-0.2,0.1-0.4,0.1-0.6c0-0.1,0-0.2-0.2-0.2c-0.4,0-0.7,0.6-1,0.9l-0.3-0.2
	v-0.1c0.2-0.4,1-1.4,1.7-1.4c0.4,0,0.7,0.3,0.7,0.6c0,0,0,0,0,0.1c0,0.2-0.1,0.5-0.1,0.7l-0.6,2.8c0,0.2-0.1,0.3-0.1,0.5
	c0,0.2,0.1,0.4,0.3,0.4s0.5-0.3,0.6-0.5l0.2-0.4l0.3,0.2c-0.3,0.5-0.9,1.4-1.7,1.4c-0.4,0-0.7-0.4-0.7-0.8c0,0,0,0,0-0.1
	c0-0.3,0-0.5,0.1-0.8L255.4,163.3z"/>
<path class="st1" d="M256.5,159.1c0.2,0,0.4,0.1,0.5,0.4c0,0,0,0.1,0,0.1c0,0.5-0.3,0.8-0.8,0.9c-0.2,0-0.5-0.2-0.5-0.4c0,0,0,0,0,0
	C255.8,159.5,256.1,159.1,256.5,159.1z M255.4,163.3c0.1-0.2,0.1-0.4,0.1-0.6c0-0.1,0-0.2-0.2-0.2c-0.4,0-0.7,0.6-1,0.9l-0.3-0.2
	v-0.1c0.2-0.4,1-1.4,1.7-1.4c0.4,0,0.7,0.3,0.7,0.6c0,0,0,0,0,0.1c0,0.2-0.1,0.5-0.1,0.7l-0.6,2.8c0,0.2-0.1,0.3-0.1,0.5
	c0,0.2,0.1,0.4,0.3,0.4s0.5-0.3,0.6-0.5l0.2-0.4l0.3,0.2c-0.3,0.5-0.9,1.4-1.7,1.4c-0.4,0-0.7-0.4-0.7-0.8c0,0,0,0,0-0.1
	c0-0.3,0-0.5,0.1-0.8L255.4,163.3z"/>
<path class="st0" d="M259.4,162.4h-1.2l0.5-0.5h0.9l0.2-1.1l1-0.2l-0.3,1.4h1.3l-0.1,0.5h-1.4l-0.7,3.3c-0.1,0.3-0.1,0.5-0.2,0.8
	c0,0.2,0.1,0.3,0.3,0.3c0,0,0,0,0,0c0.4,0,0.8-0.7,1-1l0.3,0.2c-0.4,0.8-1.1,1.6-1.8,1.6c-0.4,0-0.7-0.3-0.7-0.8
	c0-0.3,0.1-0.7,0.2-1L259.4,162.4"/>
<path class="st1" d="M259.4,162.4h-1.2l0.5-0.5h0.9l0.2-1.1l1-0.2l-0.3,1.4h1.3l-0.1,0.5h-1.4l-0.7,3.3c-0.1,0.3-0.1,0.5-0.2,0.8
	c0,0.2,0.1,0.3,0.3,0.3c0,0,0,0,0,0c0.4,0,0.8-0.7,1-1l0.3,0.2c-0.4,0.8-1.1,1.6-1.8,1.6c-0.4,0-0.7-0.3-0.7-0.8
	c0-0.3,0.1-0.7,0.2-1L259.4,162.4z"/>
<path class="st0" d="M263.7,166.9c1,0,3.1-3.1,3.1-4.7c-0.1,0-0.3,0-0.4,0c-1-0.1-1.9,0.5-2.3,1.3c-0.5,0.8-0.8,1.7-0.9,2.6
	C263.1,166.5,263.2,167,263.7,166.9 M268.4,166c-0.4,0.6-1.1,1.6-1.9,1.6c-0.5,0-0.6-0.4-0.6-0.7c0-0.5,0.1-0.9,0.2-1.4l0.2-0.8l0,0
	c-0.5,1-1.7,2.9-3.1,2.9c-0.8,0-1.1-0.7-1.1-1.4c0-1.3,1.5-4.4,4.4-4.4h0.9c0.1,0,0.3,0,0.4,0l-0.9,4c0,0.2-0.1,0.4-0.1,0.6
	c0,0.1,0.1,0.3,0.2,0.3c0,0,0,0,0,0c0.3,0,0.6-0.5,0.9-0.8L268.4,166z"/>
<path class="st1" d="M263.7,166.9c1,0,3.1-3.1,3.1-4.7c-0.1,0-0.3,0-0.4,0c-1-0.1-1.9,0.5-2.3,1.3c-0.5,0.8-0.8,1.7-0.9,2.6
	C263.1,166.5,263.2,166.9,263.7,166.9z M268.4,165.9c-0.4,0.6-1.1,1.6-1.9,1.6c-0.5,0-0.6-0.4-0.6-0.7c0-0.5,0.1-0.9,0.2-1.4
	l0.2-0.8l0,0c-0.5,1-1.7,2.9-3.1,2.9c-0.8,0-1.1-0.7-1.1-1.4c0-1.3,1.5-4.4,4.4-4.4h0.9c0.1,0,0.3,0,0.4,0l-0.8,4
	c0,0.2-0.1,0.4-0.1,0.6c0,0.1,0.1,0.3,0.2,0.3c0,0,0,0,0,0c0.3,0,0.6-0.5,0.8-0.8L268.4,165.9z"/>
<path class="st0" d="M271.3,159.1c0-0.2,0.1-0.3,0.1-0.5c0-0.2-0.1-0.3-0.3-0.3c0,0,0,0,0,0c-0.2,0-0.4,0-0.6,0.1l0.1-0.4l2-0.5
	l-1.5,6.9l0,0c0.6-1,1.8-2.7,2.9-2.7c0.4,0,0.8,0.2,0.8,0.6c0,0,0,0.1,0,0.1c0,0.2,0,0.4-0.1,0.6l-0.7,2.9c0,0.1-0.1,0.3-0.1,0.4
	c0,0.1,0.1,0.3,0.2,0.3c0,0,0,0,0.1,0c0.4,0,0.7-0.5,0.8-0.8l0.3,0.1c-0.1,0.4-0.8,1.5-1.6,1.5c-0.4,0-0.8-0.4-0.8-0.8
	c0,0,0,0,0-0.1c0-0.2,0.1-0.4,0.2-0.6l0.7-2.8c0-0.1,0.1-0.3,0.1-0.4c0-0.1-0.1-0.3-0.2-0.3c0,0,0,0,0,0c-0.6,0-1.6,1.3-2,1.9
	c-0.6,0.9-1,1.9-1.1,2.9l-1,0.2L271.3,159.1"/>
<path class="st1" d="M271.3,159.1c0-0.2,0.1-0.3,0.1-0.5c0-0.2-0.1-0.3-0.3-0.3c0,0,0,0,0,0c-0.2,0-0.4,0-0.6,0.1l0.1-0.4l2-0.5
	l-1.5,6.9l0,0c0.6-1,1.8-2.7,2.9-2.7c0.4,0,0.8,0.2,0.8,0.6c0,0,0,0.1,0,0.1c0,0.2,0,0.4-0.1,0.6l-0.7,2.9c0,0.1-0.1,0.3-0.1,0.4
	c0,0.1,0.1,0.3,0.2,0.3c0,0,0,0,0.1,0c0.4,0,0.7-0.5,0.8-0.8l0.3,0.1c-0.1,0.4-0.8,1.5-1.6,1.5c-0.4,0-0.8-0.4-0.8-0.8
	c0,0,0,0,0-0.1c0-0.2,0.1-0.4,0.2-0.6l0.7-2.8c0-0.1,0.1-0.3,0.1-0.4c0-0.1-0.1-0.3-0.2-0.3c0,0,0,0,0,0c-0.6,0-1.6,1.3-2,1.9
	c-0.6,0.9-1,1.9-1.1,2.9l-1,0.2L271.3,159.1z"/>
<path class="st0" d="M277.9,166.9c1,0,3-3.1,3.1-4.7c-0.1,0-0.3,0-0.4,0c-1-0.1-1.9,0.5-2.3,1.3c-0.5,0.8-0.8,1.7-0.9,2.6
	C277.4,166.5,277.4,167,277.9,166.9 M282.6,166c-0.4,0.6-1.1,1.6-1.9,1.6c-0.5,0-0.6-0.4-0.6-0.7c0-0.5,0.1-0.9,0.2-1.4l0.2-0.8l0,0
	c-0.5,1-1.7,2.9-3.1,2.9c-0.8,0-1.1-0.7-1.1-1.4c0-1.3,1.5-4.4,4.4-4.4h0.9c0.1,0,0.3,0,0.4,0l-0.9,4c0,0.2-0.1,0.4-0.1,0.6
	c0,0.1,0.1,0.3,0.2,0.3c0,0,0,0,0,0c0.2,0,0.6-0.5,0.9-0.8L282.6,166z"/>
<path class="st1" d="M277.9,166.9c1,0,3-3.1,3.1-4.7c-0.1,0-0.3,0-0.4,0c-1-0.1-1.9,0.5-2.3,1.3c-0.5,0.8-0.8,1.7-0.9,2.6
	C277.4,166.5,277.4,166.9,277.9,166.9z M282.6,165.9c-0.4,0.6-1.1,1.6-1.8,1.6c-0.5,0-0.6-0.4-0.6-0.7c0-0.5,0.1-0.9,0.2-1.4
	l0.2-0.8l0,0c-0.5,1-1.7,2.9-3.1,2.9c-0.8,0-1.1-0.7-1.1-1.4c0-1.3,1.5-4.4,4.4-4.4h0.9c0.1,0,0.3,0,0.4,0l-0.9,4
	c0,0.2-0.1,0.4-0.1,0.6c0,0.1,0.1,0.3,0.2,0.3c0,0,0,0,0,0c0.2,0,0.6-0.5,0.9-0.8L282.6,165.9z"/>
<path class="st0" d="M118.1,174.7h-0.2c-0.2-1-1.1-1.7-2.2-1.6c-1.2,0-2.2,1.1-2.2,2.3c0,0.1,0,0.1,0,0.2c0,1.6,0.9,3,2.3,3
	c1-0.1,1.8-0.7,2.3-1.5l0.1,1c-0.8,0.6-1.7,0.9-2.6,0.9c-1.6,0.2-3.1-1.1-3.3-2.7c0-0.1,0-0.3,0-0.4c0-1.3,1-3,3.5-3
	c0.8,0,1.5,0.2,2.3,0.5V174.7"/>
<path class="st1" d="M118.1,174.7h-0.2c-0.2-1-1.1-1.7-2.2-1.6c-1.2,0-2.2,1.1-2.2,2.3c0,0.1,0,0.1,0,0.2c0,1.6,0.9,3,2.3,3
	c1-0.1,1.8-0.7,2.3-1.5l0.1,1c-0.8,0.6-1.7,0.9-2.6,0.9c-1.6,0.2-3.1-1.1-3.3-2.7c0-0.1,0-0.3,0-0.4c0-1.3,1-3,3.5-3
	c0.8,0,1.5,0.2,2.3,0.5V174.7z"/>
<path class="st0" d="M120.2,178.5c0.5,0,0.7-0.2,0.7-0.7v-4.1c0-0.5-0.2-0.7-0.7-0.7v-0.2h1.2h1.2v0.2c-0.5,0-0.7,0.2-0.7,0.7v1.7
	h3.1v-1.7c0-0.5-0.2-0.7-0.7-0.7v-0.2h1.2h1.2v0.2c-0.5,0-0.7,0.2-0.7,0.7v4.1c0,0.5,0.2,0.7,0.7,0.7v0.2h-1.2h-1.2v-0.2
	c0.5,0,0.7-0.2,0.7-0.7v-2h-3.1v2c0,0.5,0.2,0.7,0.7,0.7v0.2h-1.2h-1.2L120.2,178.5"/>
<path class="st1" d="M120.2,178.5c0.5,0,0.7-0.2,0.7-0.7v-4.1c0-0.5-0.2-0.7-0.7-0.7v-0.2h1.2h1.2v0.2c-0.5,0-0.7,0.2-0.7,0.7v1.7
	h3.1v-1.7c0-0.5-0.2-0.7-0.7-0.7v-0.2h1.2h1.2v0.2c-0.5,0-0.7,0.2-0.7,0.7v4.1c0,0.5,0.2,0.7,0.7,0.7v0.2h-1.2h-1.2v-0.2
	c0.5,0,0.7-0.2,0.7-0.7v-2h-3.1v2c0,0.5,0.2,0.7,0.7,0.7v0.2h-1.2h-1.2L120.2,178.5z"/>
<path class="st0" d="M130.3,175.7c0.2,0,0.4,0.1,0.6,0.1c0.5,0.1,1.1-0.3,1.1-0.8c0-0.1,0-0.2,0-0.3c0.1-0.8-0.5-1.4-1.2-1.5
	c0,0-0.1,0-0.1,0c-0.1,0-0.2,0-0.4,0L130.3,175.7 M128.5,178.4c0.5,0,0.7-0.2,0.7-0.7v-4.1c0-0.5-0.1-0.7-0.7-0.7v-0.2h1h1.6
	c1.4,0,1.9,0.7,1.9,1.5c0,0.7-0.4,1.3-1.1,1.5l1,1.9c0.4,0.7,0.6,0.9,1,0.9v0.2h-0.4c-0.9,0.1-1.8-0.5-2-1.4l-0.3-0.7
	c-0.4-0.7-0.5-0.8-1-0.8v1.8c0,0.5,0.1,0.7,0.7,0.7v0.2h-1.2h-1.2L128.5,178.4z"/>
<path class="st1" d="M130.3,175.7c0.2,0,0.4,0.1,0.6,0.1c0.5,0.1,1.1-0.3,1.1-0.8c0-0.1,0-0.2,0-0.3c0.1-0.8-0.5-1.4-1.2-1.5
	c0,0-0.1,0-0.1,0c-0.1,0-0.2,0-0.4,0L130.3,175.7z M128.6,178.5c0.5,0,0.7-0.2,0.7-0.7v-4.1c0-0.5-0.1-0.7-0.7-0.7v-0.2h1h1.6
	c1.4,0,1.9,0.7,1.9,1.5c0,0.7-0.4,1.2-1.1,1.4l1,1.9c0.4,0.7,0.6,0.9,1,0.9v0.2h-0.4c-0.9,0.1-1.8-0.5-2-1.4l-0.3-0.7
	c-0.4-0.7-0.5-0.8-1-0.8v1.8c0,0.5,0.1,0.7,0.7,0.7v0.2h-1.2h-1.2V178.5z"/>
<path class="st0" d="M135.7,178.5c0.5,0,0.7-0.2,0.7-0.7v-4.1c0-0.5-0.1-0.7-0.7-0.7v-0.2h1.2h1.2v0.2c-0.5,0-0.7,0.2-0.7,0.7v4.1
	c0,0.5,0.1,0.7,0.7,0.7v0.2h-1.2h-1.2V178.5"/>
<path class="st1" d="M135.7,178.5c0.5,0,0.7-0.2,0.7-0.7v-4.1c0-0.5-0.1-0.7-0.7-0.7v-0.2h1.2h1.2v0.2c-0.5,0-0.7,0.2-0.7,0.7v4.1
	c0,0.5,0.1,0.7,0.7,0.7v0.2h-1.2h-1.2V178.5z"/>
<path class="st0" d="M140.1,177.1h0.3c0.1,0.8,0.8,1.3,1.6,1.4c0.6,0.1,1.1-0.3,1.2-0.9c0,0,0,0,0-0.1c0-1.3-3-1.3-3-3.1
	c0-0.4,0.2-1.7,2.1-1.7c0.5,0,1,0.1,1.5,0.2v1.5h-0.3c0-0.8-0.7-1.4-1.5-1.4c0,0,0,0,0,0c-0.5,0-1,0.3-1.1,0.9
	c0,1.2,3.1,1.3,3.1,3.1c0,1-0.7,1.8-2.1,1.8c-0.6,0-1.2-0.1-1.8-0.3L140.1,177.1"/>
<path class="st1" d="M140.1,177.1h0.3c0.1,0.8,0.8,1.3,1.6,1.4c0.6,0.1,1.1-0.3,1.2-0.9c0,0,0,0,0-0.1c0-1.3-3-1.3-3-3.1
	c0-0.4,0.2-1.7,2.1-1.7c0.5,0,1,0.1,1.5,0.2v1.5h-0.3c0-0.8-0.7-1.4-1.5-1.4c0,0,0,0,0,0c-0.5,0-1,0.3-1.1,0.9
	c0,1.2,3.1,1.3,3.1,3.1c0,1-0.7,1.8-2.1,1.8c-0.6,0-1.2-0.1-1.8-0.3L140.1,177.1z"/>
<path class="st0" d="M147.4,178.5c0.5,0,0.7-0.2,0.7-0.7v-4.6h-0.7c-0.7,0-1.1,0.2-1.1,1.2h-0.3v-1.6h2.7c0.9,0,1.8,0,2.6,0v1.6H151
	c-0.1-1-0.5-1.2-1.1-1.2h-0.7v4.6c0,0.5,0.2,0.7,0.7,0.7v0.2h-1.2h-1.2L147.4,178.5"/>
<path class="st1" d="M147.4,178.5c0.5,0,0.7-0.2,0.7-0.7v-4.6h-0.7c-0.7,0-1.1,0.2-1.1,1.2h-0.3v-1.6h2.7c0.9,0,1.8,0,2.6,0v1.6H151
	c-0.1-1-0.5-1.2-1.1-1.2h-0.7v4.6c0,0.5,0.2,0.7,0.7,0.7v0.2h-1.2h-1.2L147.4,178.5z"/>
<path class="st0" d="M159,174.7h-0.2c-0.2-1-1.1-1.7-2.2-1.6c-1.2,0-2.2,1.1-2.2,2.3c0,0.1,0,0.1,0,0.2c0,1.6,0.9,3,2.3,3
	c1-0.1,1.8-0.6,2.3-1.5l0.1,1c-0.8,0.6-1.7,0.9-2.6,0.9c-1.6,0.2-3.1-1.1-3.3-2.7c0-0.1,0-0.3,0-0.4c0-1.3,1-3,3.5-3
	c0.8,0,1.5,0.2,2.3,0.5L159,174.7"/>
<path class="st1" d="M159,174.7h-0.2c-0.2-1-1.1-1.7-2.2-1.6c-1.2,0-2.2,1.1-2.2,2.3c0,0.1,0,0.1,0,0.2c0,1.6,0.9,3,2.3,3
	c1-0.1,1.8-0.6,2.3-1.5l0.1,1c-0.8,0.6-1.7,0.9-2.6,0.9c-1.6,0.2-3.1-1.1-3.3-2.7c0-0.1,0-0.3,0-0.4c0-1.3,1-3,3.5-3
	c0.8,0,1.5,0.2,2.3,0.5L159,174.7z"/>
<path class="st0" d="M161.1,178.5c0.5,0,0.7-0.2,0.7-0.7v-4.1c0-0.5-0.1-0.7-0.7-0.7v-0.2h1.2h1.2v0.2c-0.5,0-0.7,0.2-0.7,0.7v1.7
	h3.1v-1.7c0-0.5-0.1-0.7-0.7-0.7v-0.2h1.2h1.2v0.2c-0.5,0-0.7,0.2-0.7,0.7v4.1c0,0.5,0.1,0.7,0.7,0.7v0.2h-1.2h-1.2v-0.2
	c0.5,0,0.7-0.2,0.7-0.7v-2h-3.1v2c0,0.5,0.2,0.7,0.7,0.7v0.2h-1.2h-1.2V178.5"/>
<path class="st1" d="M161.1,178.5c0.5,0,0.7-0.2,0.7-0.7v-4.1c0-0.5-0.1-0.7-0.7-0.7v-0.2h1.2h1.2v0.2c-0.5,0-0.7,0.2-0.7,0.7v1.7
	h3.1v-1.7c0-0.5-0.1-0.7-0.7-0.7v-0.2h1.2h1.2v0.2c-0.5,0-0.7,0.2-0.7,0.7v4.1c0,0.5,0.1,0.7,0.7,0.7v0.2h-1.2h-1.2v-0.2
	c0.5,0,0.7-0.2,0.7-0.7v-2h-3.1v2c0,0.5,0.2,0.7,0.7,0.7v0.2h-1.2h-1.2V178.5z"/>
<path class="st0" d="M175.9,173.1c-0.5,0-0.7,0.2-0.7,0.7v2.7c0.1,1.2-0.7,2.3-1.9,2.4c-0.1,0-0.3,0-0.4,0c-1.5,0-2.7-0.7-2.7-2.4
	v-2.6c0-0.5-0.2-0.7-0.7-0.7v-0.2h1.2h1.2v0.2c-0.5,0-0.7,0.2-0.7,0.7v2.9c-0.1,0.9,0.6,1.8,1.5,1.9c0.1,0,0.1,0,0.2,0
	c1.4,0,2-0.9,2-2.4c0-0.5,0-0.8,0-1.2v-1.2c0-0.5-0.1-0.7-0.7-0.7v-0.2h0.9h0.9v0.2"/>
<path class="st1" d="M175.9,173.1c-0.5,0-0.7,0.2-0.7,0.7v2.7c0.1,1.2-0.7,2.3-1.9,2.4c-0.1,0-0.3,0-0.4,0c-1.5,0-2.7-0.7-2.7-2.4
	v-2.6c0-0.5-0.2-0.7-0.7-0.7v-0.2h1.2h1.2v0.2c-0.5,0-0.7,0.2-0.7,0.7v2.9c-0.1,0.9,0.6,1.8,1.5,1.9c0.1,0,0.1,0,0.2,0
	c1.4,0,2-0.9,2-2.4c0-0.5,0-0.8,0-1.2v-1.2c0-0.5-0.1-0.7-0.7-0.7v-0.2h0.9h0.9L175.9,173.1z"/>
<path class="st0" d="M179.4,175.7c0.2,0,0.4,0.1,0.5,0.1c0.8,0,1.2-0.3,1.2-1.1c0.1-0.8-0.5-1.4-1.2-1.5c-0.1,0-0.1,0-0.2,0
	c-0.1,0-0.2,0-0.4,0V175.7 M177.7,178.4c0.5,0,0.7-0.2,0.7-0.7v-4.1c0-0.5-0.2-0.7-0.7-0.7v-0.2h1h1.6c1.4,0,1.9,0.7,1.9,1.5
	c0,0.7-0.5,1.3-1.1,1.4l1,1.9c0.4,0.7,0.6,0.9,1,0.9v0.2h-0.4c-0.9,0.1-1.8-0.5-2-1.4l-0.3-0.7c-0.3-0.7-0.5-0.8-1-0.8v1.8
	c0,0.5,0.1,0.7,0.7,0.7v0.2h-1.2h-1.2L177.7,178.4z"/>
<path class="st1" d="M179.4,175.7c0.2,0,0.4,0.1,0.5,0.1c0.8,0,1.2-0.3,1.2-1.1c0.1-0.8-0.5-1.4-1.2-1.5c-0.1,0-0.1,0-0.2,0
	c-0.1,0-0.2,0-0.4,0V175.7z M177.7,178.5c0.5,0,0.7-0.2,0.7-0.7v-4.1c0-0.5-0.1-0.7-0.7-0.7v-0.2h1h1.6c1.4,0,1.9,0.7,1.9,1.5
	c0,0.7-0.5,1.3-1.1,1.4l1,1.9c0.4,0.7,0.6,0.9,1,0.9v0.2h-0.4c-0.9,0.1-1.8-0.5-2-1.4l-0.3-0.7c-0.3-0.7-0.5-0.8-1-0.8v1.8
	c0,0.5,0.2,0.7,0.7,0.7v0.2h-1.2h-1.2L177.7,178.5z"/>
<path class="st0" d="M190.8,174.7h-0.2c-0.2-1-1.1-1.7-2.2-1.6c-1.2,0-2.2,1.1-2.2,2.3c0,0.1,0,0.1,0,0.2c0,1.6,0.9,3,2.3,3
	c1-0.1,1.8-0.6,2.3-1.5l0.1,1c-0.8,0.6-1.7,0.9-2.6,0.9c-1.6,0.2-3.1-1-3.3-2.7c0-0.2,0-0.3,0-0.5c0-1.3,1-3,3.5-3
	c0.8,0,1.5,0.2,2.3,0.5L190.8,174.7"/>
<path class="st1" d="M190.8,174.7h-0.2c-0.2-1-1.1-1.7-2.2-1.6c-1.2,0-2.2,1.1-2.2,2.3c0,0.1,0,0.1,0,0.2c0,1.6,0.9,3,2.3,3
	c1-0.1,1.8-0.6,2.3-1.5l0.1,1c-0.8,0.6-1.7,0.9-2.6,0.9c-1.6,0.2-3.1-1-3.3-2.7c0-0.2,0-0.3,0-0.5c0-1.3,1-3,3.5-3
	c0.8,0,1.5,0.2,2.3,0.5L190.8,174.7z"/>
<path class="st0" d="M192.9,178.5c0.5,0,0.7-0.2,0.7-0.7v-4.1c0-0.5-0.1-0.7-0.7-0.7v-0.2h1.2h1.2v0.2c-0.5,0-0.7,0.2-0.7,0.7v1.7
	h3.1v-1.7c0-0.5-0.1-0.7-0.7-0.7v-0.2h1.2h1.2v0.2c-0.5,0-0.7,0.2-0.7,0.7v4.1c0,0.5,0.2,0.7,0.7,0.7v0.2h-1.2H197v-0.2
	c0.5,0,0.7-0.2,0.7-0.7v-2h-3.1v2c0,0.5,0.1,0.7,0.7,0.7v0.2h-1.2h-1.2V178.5"/>
<path class="st1" d="M192.9,178.5c0.5,0,0.7-0.2,0.7-0.7v-4.1c0-0.5-0.1-0.7-0.7-0.7v-0.2h1.2h1.2v0.2c-0.5,0-0.7,0.2-0.7,0.7v1.7
	h3.1v-1.7c0-0.5-0.1-0.7-0.7-0.7v-0.2h1.2h1.2v0.2c-0.5,0-0.7,0.2-0.7,0.7v4.1c0,0.5,0.2,0.7,0.7,0.7v0.2h-1.2H197v-0.2
	c0.5,0,0.7-0.2,0.7-0.7v-2h-3.1v2c0,0.5,0.1,0.7,0.7,0.7v0.2h-1.2h-1.2V178.5z"/>
<path class="st0" d="M205,178.5c0.5,0,0.7-0.2,0.7-0.7v-4.1c0-0.5-0.1-0.7-0.7-0.7v-0.2h0.9h0.7l3.9,4.4v-3.4c0-0.5-0.1-0.7-0.7-0.7
	v-0.2h0.9h0.9v0.2c-0.5,0-0.7,0.2-0.7,0.7v5h-0.3l-4.5-4.9l0.1,3.9c0,0.6,0.2,0.7,0.7,0.7v0.2c-0.2,0-0.7,0-0.9,0s-0.6,0-0.9,0
	L205,178.5"/>
<path class="st1" d="M205,178.5c0.5,0,0.7-0.2,0.7-0.7v-4.1c0-0.5-0.1-0.7-0.7-0.7v-0.2h0.9h0.7l3.9,4.4v-3.4c0-0.5-0.1-0.7-0.7-0.7
	v-0.2h0.9h0.9v0.2c-0.5,0-0.7,0.2-0.7,0.7v5h-0.3l-4.5-4.9l0.1,3.9c0,0.6,0.2,0.7,0.7,0.7v0.2c-0.2,0-0.7,0-0.9,0s-0.6,0-0.9,0
	L205,178.5z"/>
<path class="st0" d="M213.3,178.5c0.5,0,0.7-0.2,0.7-0.7v-4.1c0-0.5-0.1-0.7-0.7-0.7v-0.2h1.1h3v1.4h-0.3c-0.1-0.8-0.5-1.1-1.5-1.1
	H215v2.4h0.6c0.8,0,0.9-0.3,0.9-0.8h0.3c0,0.3,0,0.6,0,0.9s0,0.7,0,1h-0.3c0-0.6-0.2-0.8-0.9-0.8H215v2c0,0.4,0.1,0.6,0.9,0.6
	s1.4-0.1,1.6-1.2h0.3c-0.1,0.5-0.1,1-0.1,1.5c-0.8,0-1.8,0-3.1,0c-0.6,0-1.1,0-1.3,0L213.3,178.5"/>
<path class="st1" d="M213.3,178.5c0.5,0,0.7-0.2,0.7-0.7v-4.1c0-0.5-0.1-0.7-0.7-0.7v-0.2h1.1h3v1.4h-0.3c-0.1-0.8-0.5-1.1-1.5-1.1
	H215v2.4h0.6c0.8,0,0.9-0.3,0.9-0.8h0.3c0,0.3,0,0.6,0,0.9s0,0.7,0,1h-0.3c0-0.6-0.2-0.8-0.9-0.8H215v2c0,0.4,0.1,0.6,0.9,0.6
	s1.4-0.1,1.6-1.2h0.3c-0.1,0.5-0.1,1-0.1,1.5c-0.8,0-1.8,0-3.1,0c-0.6,0-1.1,0-1.3,0L213.3,178.5z"/>
<path class="st0" d="M219.6,172.9h1.2h1.2v0.2h-0.2c-0.3,0-0.4,0.1-0.4,0.4c0,0.2,0.1,0.3,0.1,0.4l1.2,3.4l0,0l1.4-4.5h0.1l1.6,4.5
	l0,0l1-3.3c0.1-0.2,0.1-0.3,0.1-0.5c0-0.3-0.2-0.4-0.6-0.4v-0.2h0.9h0.9v0.2c-0.6,0-0.7,0.2-0.9,0.7l-1.7,5h-0.2l-1.5-4.2l0,0
	l-1.4,4.2h-0.2l-1.8-4.9c-0.2-0.7-0.4-0.7-0.8-0.8L219.6,172.9"/>
<path class="st1" d="M219.6,172.9h1.2h1.2v0.2h-0.2c-0.3,0-0.4,0.1-0.4,0.4c0,0.2,0.1,0.3,0.1,0.4l1.2,3.4l0,0l1.4-4.5h0.1l1.6,4.5
	l0,0l1-3.3c0.1-0.2,0.1-0.3,0.1-0.5c0-0.3-0.2-0.4-0.6-0.4v-0.2h0.9h0.9v0.2c-0.6,0-0.7,0.2-0.9,0.7l-1.7,5h-0.2l-1.5-4.2l0,0
	l-1.4,4.2h-0.2l-1.8-4.9c-0.2-0.7-0.4-0.7-0.8-0.8L219.6,172.9z"/>
<path class="st0" d="M233.6,178.6l3.7-5.2h-2.2c-0.6,0-0.9,0.2-1,1.1h-0.3l0.1-1.6h2.5h2.5l-3.9,5.5h2.3c0.9,0,1.1-0.4,1.2-1.2h0.3
	l-0.1,1.7c-0.7,0-1.6,0-2.6,0s-2,0-2.6,0L233.6,178.6"/>
<path class="st1" d="M233.6,178.6l3.7-5.2h-2.2c-0.6,0-0.9,0.2-1,1.1h-0.3l0.1-1.6h2.5h2.5l-3.9,5.5h2.3c0.9,0,1.1-0.4,1.2-1.2h0.3
	l-0.1,1.7c-0.7,0-1.6,0-2.6,0s-2,0-2.6,0L233.6,178.6z"/>
<path class="st0" d="M240.6,178.5c0.5,0,0.7-0.2,0.7-0.7v-4.1c0-0.5-0.1-0.7-0.7-0.7v-0.2h1.1h3.1v1.4h-0.3
	c-0.1-0.8-0.5-1.1-1.5-1.1h-0.7v2.4h0.7c0.8,0,0.9-0.3,0.9-0.8h0.3c0,0.3,0,0.6,0,0.9s0,0.7,0,1h-0.3c0-0.6-0.2-0.8-0.9-0.8h-0.6v2
	c0,0.4,0.2,0.6,0.9,0.6s1.4-0.1,1.6-1.2h0.3c-0.1,0.5-0.1,1-0.1,1.5c-0.8,0-1.9,0-3.1,0c-0.6,0-1.1,0-1.3,0L240.6,178.5"/>
<path class="st1" d="M240.6,178.5c0.5,0,0.7-0.2,0.7-0.7v-4.1c0-0.5-0.1-0.7-0.7-0.7v-0.2h1.1h3.1v1.4h-0.3
	c-0.1-0.8-0.5-1.1-1.5-1.1h-0.7v2.4h0.7c0.8,0,0.9-0.3,0.9-0.8h0.3c0,0.3,0,0.6,0,0.9s0,0.7,0,1h-0.3c0-0.6-0.2-0.8-0.9-0.8h-0.6v2
	c0,0.4,0.2,0.6,0.9,0.6s1.4-0.1,1.6-1.2h0.3c-0.1,0.5-0.1,1-0.1,1.5c-0.8,0-1.9,0-3.1,0c-0.6,0-1.1,0-1.3,0L240.6,178.5z"/>
<path class="st0" d="M250.5,176.4l-0.9-2.1l-0.8,2.1H250.5 M246.9,178.5c0.6,0,0.7-0.1,1.2-1.2l1.8-4.4h0.1l2.2,5
	c0.2,0.5,0.4,0.6,0.8,0.6v0.2h-1.3h-1.3v-0.2c0.5,0,0.6-0.1,0.6-0.3c0-0.2-0.1-0.5-0.2-0.7l-0.3-0.8h-1.9l-0.2,0.7
	c-0.1,0.2-0.2,0.5-0.2,0.8c0,0.2,0.1,0.3,0.6,0.3v0.2h-1h-1L246.9,178.5z"/>
<path class="st1" d="M250.5,176.4l-0.9-2.1l-0.8,2.1H250.5z M246.9,178.5c0.6,0,0.7-0.1,1.2-1.2l1.8-4.4h0.1l2.2,5
	c0.2,0.5,0.4,0.6,0.8,0.6v0.2h-1.3h-1.3v-0.2c0.5,0,0.6-0.1,0.6-0.3c0-0.2-0.1-0.5-0.2-0.7l-0.3-0.8h-1.9l-0.2,0.7
	c-0.1,0.2-0.2,0.5-0.2,0.8c0,0.2,0.1,0.3,0.6,0.3v0.2h-1h-1L246.9,178.5z"/>
<path class="st0" d="M254.8,178.5c0.5,0,0.7-0.2,0.7-0.7v-4.1c0-0.5-0.1-0.7-0.7-0.7v-0.2h1.2h1.2v0.2c-0.5,0-0.7,0.2-0.7,0.7v4.1
	c0,0.4,0.2,0.6,0.9,0.6c1.1,0,1.6-0.1,1.8-1.2h0.3l-0.1,1.5c-0.8,0-2.4,0-4,0c-0.2,0-0.4,0-0.6,0L254.8,178.5"/>
<path class="st1" d="M254.8,178.5c0.5,0,0.7-0.2,0.7-0.7v-4.1c0-0.5-0.1-0.7-0.7-0.7v-0.2h1.2h1.2v0.2c-0.5,0-0.7,0.2-0.7,0.7v4.1
	c0,0.4,0.2,0.6,0.9,0.6c1.1,0,1.6-0.1,1.8-1.2h0.3l-0.1,1.5c-0.8,0-2.4,0-4,0c-0.2,0-0.4,0-0.6,0L254.8,178.5z"/>
<path class="st0" d="M264.7,176.4l-0.9-2.1l-0.8,2.1H264.7 M261.1,178.5c0.6,0,0.7-0.1,1.2-1.2l1.8-4.4h0.1l2.2,5
	c0.2,0.5,0.4,0.6,0.9,0.6v0.2H266h-1.3v-0.2c0.5,0,0.6-0.1,0.6-0.3c0-0.2-0.1-0.5-0.2-0.7l-0.3-0.8h-1.9l-0.2,0.7
	c-0.1,0.2-0.2,0.5-0.2,0.8c0,0.2,0.1,0.3,0.6,0.3v0.2h-1h-1L261.1,178.5z"/>
<path class="st1" d="M264.7,176.4l-0.9-2.1l-0.8,2.1H264.7z M261.1,178.5c0.6,0,0.7-0.1,1.2-1.2l1.8-4.4h0.1l2.2,5
	c0.2,0.5,0.4,0.6,0.9,0.6v0.2H266h-1.3v-0.2c0.5,0,0.6-0.1,0.6-0.3c0-0.2-0.1-0.5-0.2-0.7l-0.3-0.8h-1.9l-0.2,0.7
	c-0.1,0.2-0.2,0.5-0.2,0.8c0,0.2,0.1,0.3,0.6,0.3v0.2h-1h-1L261.1,178.5z"/>
<path class="st0" d="M268.9,178.5c0.5,0,0.7-0.2,0.7-0.7v-4.1c0-0.5-0.1-0.7-0.7-0.7v-0.2h0.9h0.7l3.9,4.4v-3.4
	c0-0.5-0.1-0.7-0.7-0.7v-0.2h0.9h0.9v0.2c-0.5,0-0.7,0.2-0.7,0.7v5h-0.3l-4.5-4.9l0.1,3.9c0,0.6,0.2,0.7,0.7,0.7v0.2
	c-0.2,0-0.7,0-0.9,0c-0.2,0-0.6,0-0.9,0L268.9,178.5"/>
<path class="st1" d="M268.9,178.5c0.5,0,0.7-0.2,0.7-0.7v-4.1c0-0.5-0.1-0.7-0.7-0.7v-0.2h0.9h0.7l3.9,4.4v-3.4
	c0-0.5-0.1-0.7-0.7-0.7v-0.2h0.9h0.9v0.2c-0.5,0-0.7,0.2-0.7,0.7v5h-0.3l-4.5-4.9l0.1,3.9c0,0.6,0.2,0.7,0.7,0.7v0.2
	c-0.2,0-0.7,0-0.9,0c-0.2,0-0.6,0-0.9,0L268.9,178.5z"/>
<path class="st0" d="M278.9,177.8c0,0.4,0.2,0.5,0.8,0.5c1.2,0.2,2.3-0.7,2.4-1.9c0-0.2,0-0.4,0-0.5c0.1-0.9-0.3-1.8-0.9-2.4
	c-0.5-0.4-1.2-0.5-1.8-0.4h-0.6V177.8 M277.1,178.5c0.5,0,0.7-0.2,0.7-0.7v-4.1c0-0.5-0.1-0.7-0.7-0.7v-0.2h1h2.1
	c1.5-0.2,2.9,0.9,3.1,2.5c0,0.2,0,0.3,0,0.5c0,0.9-0.5,2.9-3.4,2.9c-0.6,0-1.3,0-1.9,0c-0.3,0-0.6,0-0.9,0L277.1,178.5z"/>
<path class="st1" d="M278.9,177.8c0,0.4,0.2,0.5,0.8,0.5c1.2,0.2,2.3-0.7,2.4-1.9c0-0.2,0-0.4,0-0.5c0.1-0.9-0.3-1.8-0.9-2.4
	c-0.5-0.4-1.2-0.5-1.8-0.4h-0.6V177.8z M277.1,178.5c0.5,0,0.7-0.2,0.7-0.7v-4.1c0-0.5-0.1-0.7-0.7-0.7v-0.2h1h2.1
	c1.5-0.2,2.9,0.9,3.1,2.5c0,0.2,0,0.3,0,0.5c0,0.9-0.5,2.9-3.4,2.9c-0.6,0-1.3,0-1.9,0c-0.3,0-0.6,0-0.9,0L277.1,178.5z"/>
<path class="st0" d="M125.2,113.5v5.3c0,2.4-0.2,3.2-0.8,4.3c-1,1.9-3,2.9-5.6,2.9c-3.2,0-5.6-1.7-6.3-4.3c-0.2-0.9-0.3-1.8-0.3-2.7
	v-5.5c0-1.7-0.2-2-1.6-2.3c-0.1,0-0.2,0-0.2,0v-0.5h0.4c0.6,0.1,1.3,0.1,1.9,0.1c0.8,0,1.7,0,2.1,0h1.2h0.5v0.5
	c-1.4,0.2-1.7,0.5-1.7,2.2v6.1c-0.1,1.2,0.1,2.4,0.6,3.5c0.8,1.4,2.4,2.2,4,2.2c2.3,0.1,4.3-1.6,4.6-3.9c0.1-0.5,0.1-1,0.1-1.4v-0.6
	l-0.1-5.7c-0.1-1.9-0.2-2.2-1.7-2.3h-0.3v-0.5h0.2h1c0.3,0,0.6,0,0.9,0h1.4h0.9h0.3v0.5c-1.3,0.1-1.8,0.6-1.8,2.2"/>
<path class="st1" d="M125.2,113.5v5.3c0,2.4-0.2,3.2-0.8,4.3c-1,1.9-3,2.9-5.6,2.9c-3.2,0-5.6-1.7-6.3-4.3c-0.2-0.9-0.3-1.8-0.3-2.7
	v-5.5c0-1.7-0.2-2-1.6-2.3c-0.1,0-0.2,0-0.2,0v-0.5h0.4c0.6,0.1,1.3,0.1,1.9,0.1c0.8,0,1.7,0,2.1,0h1.2h0.5v0.5
	c-1.4,0.2-1.7,0.5-1.7,2.2v6.1c-0.1,1.2,0.1,2.4,0.6,3.5c0.8,1.4,2.4,2.2,4,2.2c2.3,0.1,4.3-1.6,4.6-3.9c0.1-0.5,0.1-1,0.1-1.4v-0.6
	l-0.1-5.7c-0.1-1.9-0.2-2.2-1.7-2.3h-0.3v-0.5h0.2h1c0.3,0,0.6,0,0.9,0h1.4h0.9h0.3v0.5C125.7,111.3,125.2,111.8,125.2,113.5z"/>
<path class="st0" d="M145.8,111.4h-0.1c-1.3,0.1-1.7,0.5-1.7,2V126h-0.5l-11.6-12.7v9.3c0,1.9,0.4,2.4,2,2.5v0.6H129v-0.5
	c1.5-0.1,1.9-0.6,1.9-2.5v-9.7c0-1.1-0.5-1.5-1.7-1.6h-0.2v-0.6h0.3h0.8h0.9h0.8h1.1l9.9,11v-8.3c0-1.6-0.3-2-1.8-2.1v-0.6h0.4
	c0.6,0,1.6,0.1,2.1,0.1h0.9h1.3L145.8,111.4"/>
<path class="st1" d="M145.8,111.4h-0.1c-1.3,0.1-1.7,0.5-1.7,2V126h-0.5l-11.6-12.7v9.3c0,1.9,0.4,2.4,2,2.5v0.6H129v-0.5
	c1.5-0.1,1.9-0.6,1.9-2.5v-9.7c0-1.1-0.5-1.5-1.7-1.6h-0.2v-0.6h0.3h0.8h0.9h0.8h1.1l9.9,11v-8.3c0-1.6-0.3-2-1.8-2.1v-0.6h0.4
	c0.6,0,1.6,0.1,2.1,0.1h0.9h1.3L145.8,111.4z"/>
<path class="st0" d="M153.2,111.3c-1.4,0-1.7,0.4-1.7,2v9.9c0,1.6,0.3,2,1.7,2v0.5c-1.3,0-1.8,0-2.9,0c-1.1,0-1.6,0-3,0v-0.5
	c1.3,0,1.7-0.4,1.7-2v-9.9c0-1.6-0.3-2-1.7-2v-0.5c1.3,0,2.1,0,3.4,0c1.3,0,1.5,0,2.4,0L153.2,111.3"/>
<path class="st1" d="M153.2,111.3c-1.4,0-1.7,0.4-1.7,2v9.9c0,1.6,0.3,2,1.7,2v0.5c-1.3,0-1.8,0-2.9,0c-1.1,0-1.6,0-3,0v-0.5
	c1.3,0,1.7-0.4,1.7-2v-9.9c0-1.6-0.3-2-1.7-2v-0.5c1.3,0,2.1,0,3.4,0c1.3,0,1.5,0,2.4,0L153.2,111.3z"/>
<path class="st0" d="M171.4,111.2c-1.1-0.1-2.1,0.6-2.5,1.7l-0.3,0.8l-5,12.2h-0.5l-5.7-12.2c-0.9-1.9-1.2-2.2-2.5-2.4v-0.5h1.8
	c0.3,0,1.3,0,2.1,0h1.2h1.3h0.5v0.5c-1.2,0-1.8,0.4-1.8,1.1c0,0.3,0.1,0.7,0.2,1l4.2,9.3l3.4-9.3c0.1-0.4,0.2-0.7,0.2-1.1
	c0-0.6-0.4-0.9-1.4-0.9v-0.5h0.3c0.1,0,0.5,0,0.9,0s1,0,1.1,0c0.1,0,0.6,0,1.1,0h1h0.4L171.4,111.2"/>
<path class="st1" d="M171.4,111.2c-1.1-0.1-2.1,0.6-2.5,1.7l-0.3,0.8l-5,12.2h-0.5l-5.7-12.2c-0.9-1.9-1.2-2.2-2.5-2.4v-0.5h1.8
	c0.3,0,1.3,0,2.1,0h1.2h1.3h0.5v0.5c-1.2,0-1.8,0.4-1.8,1.1c0,0.3,0.1,0.7,0.2,1l4.2,9.3l3.4-9.3c0.1-0.4,0.2-0.7,0.2-1.1
	c0-0.6-0.4-0.9-1.4-0.9v-0.5h0.3c0.1,0,0.5,0,0.9,0s1,0,1.1,0c0.1,0,0.6,0,1.1,0h1h0.4L171.4,111.2z"/>
<path class="st0" d="M182.8,110.9l0.1,1c0,0.6,0.1,1.1,0.2,1.9v0.3l-0.7,0.1c-0.1-0.7-0.3-1.3-0.8-1.8c-0.7-0.8-1.2-0.9-3.4-0.9
	h-1.5v6h1.5c2,0,2.4-0.3,2.5-1.8v-0.3h0.7v0.2v1c0,0.3,0,0.7,0,1.2s0,0.8,0,1.1v1.1v0.4h-0.7c0-1.7-0.4-2-2.6-2h-1.4v4.6
	c0,1.5,0.4,1.8,2.1,1.8c3.1,0,4-0.7,4.6-3.1l0.7,0.1c-0.1,0.9-0.2,2.1-0.3,3.3v0.4c-1,0-2.3,0-4,0H176h-1.9h-1.6v-0.5
	c1.3,0,1.7-0.4,1.7-2v-9.9c0-1.6-0.3-2-1.7-2v-0.5h0.5h1.1h1.7h2h2.3h2h0.7L182.8,110.9"/>
<path class="st1" d="M182.8,110.9l0.1,1c0,0.6,0.1,1.1,0.2,1.9v0.3l-0.7,0.1c-0.1-0.7-0.3-1.3-0.8-1.8c-0.7-0.8-1.2-0.9-3.4-0.9
	h-1.5v6h1.5c2,0,2.4-0.3,2.5-1.8v-0.3h0.7v0.2v1c0,0.3,0,0.7,0,1.2s0,0.8,0,1.1v1.1v0.4h-0.7c0-1.7-0.4-2-2.6-2h-1.4v4.6
	c0,1.5,0.4,1.8,2.1,1.8c3.1,0,4-0.7,4.6-3.1l0.7,0.1c-0.1,0.9-0.2,2.1-0.3,3.3v0.4c-1,0-2.3,0-4,0H176h-1.9h-1.6v-0.5
	c1.3,0,1.7-0.4,1.7-2v-9.9c0-1.6-0.3-2-1.7-2v-0.5h0.5h1.1h1.7h2h2.3h2h0.7L182.8,110.9z"/>
<path class="st0" d="M190.4,117.9h0.6c0.8,0,1.6-0.1,2.3-0.3c1-0.5,1.5-1.5,1.4-2.6c0-1.2-0.5-2.4-1.4-3.1c-0.7-0.5-1.5-0.7-2.3-0.6
	h-0.6V117.9 M186.5,110.7c0.6,0,1.2,0,1.9,0c0.9,0,1.9,0,2.9-0.1c0.7,0,1.3,0,1.7,0c2.7,0,4.5,1.6,4.5,3.8c0,1.4-0.7,2.6-1.9,3.3
	c-0.4,0.2-0.8,0.3-1.2,0.4c0.3,0.3,0.6,0.7,0.8,1.1l1.2,2.3c1.3,2.5,1.5,2.8,2.1,3.2c0.2,0.2,0.5,0.3,0.8,0.3
	c0.2,0.1,0.5,0.1,0.7,0.1v0.5c-0.5,0.1-1,0.1-1.4,0.1c-1.2,0.1-2.5-0.4-3.4-1.3c-1-1.3-1.9-2.7-2.5-4.3c-0.6-1.2-1.1-1.6-2.2-1.6
	h-0.1v4c0,2,0.2,2.2,1.9,2.3v0.6h-2h-1.5c-0.8,0-1.3,0-2.6,0v-0.5c1.4,0,1.7-0.4,1.7-2v-9.9c0-1.6-0.3-2-1.7-2v-0.5L186.5,110.7z"/>
<path class="st1" d="M190.4,117.9h0.6c0.8,0,1.6-0.1,2.3-0.3c1-0.5,1.5-1.5,1.4-2.6c0-1.2-0.5-2.4-1.4-3.1c-0.7-0.5-1.5-0.7-2.3-0.6
	h-0.6V117.9z M186.5,110.7c0.6,0,1.2,0,1.9,0c0.9,0,1.9,0,2.9-0.1c0.7,0,1.3,0,1.7,0c2.7,0,4.5,1.6,4.5,3.8c0,1.4-0.7,2.6-1.9,3.3
	c-0.4,0.2-0.8,0.3-1.2,0.4c0.3,0.3,0.6,0.7,0.8,1.1l1.2,2.3c1.3,2.5,1.5,2.8,2.1,3.2c0.2,0.2,0.5,0.3,0.8,0.3
	c0.2,0.1,0.5,0.1,0.7,0.1v0.5c-0.5,0.1-1,0.1-1.4,0.1c-1.2,0.1-2.5-0.4-3.4-1.3c-1-1.3-1.9-2.7-2.5-4.3c-0.6-1.2-1.1-1.6-2.2-1.6
	h-0.1v4c0,2,0.2,2.2,1.9,2.3v0.6h-2h-1.5c-0.8,0-1.3,0-2.6,0v-0.5c1.4,0,1.7-0.4,1.7-2v-9.9c0-1.6-0.3-2-1.7-2v-0.5L186.5,110.7z"/>
<path class="st0" d="M211.1,114.6h-0.7c-0.1-0.7-0.3-1.3-0.6-1.8c-0.7-1-1.9-1.6-3.1-1.6c-1.3-0.1-2.5,0.9-2.6,2.3
	c0,0.8,0.4,1.4,1.5,2.1c0.6,0.4,1.4,0.8,2.2,1.3c2.1,1.1,2.9,1.8,3.4,2.8c0.3,0.6,0.4,1.2,0.4,1.9c0,2.7-2,4.5-4.9,4.5
	c-1.5,0-3.1-0.2-4.6-0.5l-0.2-3.8l0.7-0.1v0.2c0.2,1.1,0.8,2,1.7,2.6c0.7,0.5,1.6,0.8,2.5,0.8c1.4,0.1,2.7-1.1,2.7-2.5c0,0,0,0,0,0
	c0-0.4-0.1-0.8-0.3-1.1c-0.5-0.7-0.9-1-3.6-2.4c-2.5-1.2-3.6-2.6-3.6-4.3c0.1-1.7,1.1-3.3,2.7-4c0.8-0.3,1.6-0.4,2.4-0.4
	c1.2,0,2.4,0.1,3.6,0.3h0.3L211.1,114.6"/>
<path class="st1" d="M211.1,114.6h-0.7c-0.1-0.7-0.3-1.3-0.6-1.8c-0.7-1-1.9-1.6-3.1-1.6c-1.3-0.1-2.5,0.9-2.6,2.3
	c0,0.8,0.4,1.4,1.5,2.1c0.6,0.4,1.4,0.8,2.2,1.3c2.1,1.1,2.9,1.8,3.4,2.8c0.3,0.6,0.4,1.2,0.4,1.9c0,2.7-2,4.5-4.9,4.5
	c-1.5,0-3.1-0.2-4.6-0.5l-0.2-3.8l0.7-0.1v0.2c0.2,1.1,0.8,2,1.7,2.6c0.7,0.5,1.6,0.8,2.5,0.8c1.4,0.1,2.7-1.1,2.7-2.5c0,0,0,0,0,0
	c0-0.4-0.1-0.8-0.3-1.1c-0.5-0.7-0.9-1-3.6-2.4c-2.5-1.2-3.6-2.6-3.6-4.3c0.1-1.7,1.1-3.3,2.7-4c0.8-0.3,1.6-0.4,2.4-0.4
	c1.2,0,2.4,0.1,3.6,0.3h0.3L211.1,114.6z"/>
<path class="st0" d="M219.3,111.3c-1.4,0-1.7,0.4-1.7,2v9.9c0,1.6,0.3,2,1.7,2v0.5c-1.3,0-1.8,0-2.9,0s-1.6,0-3,0v-0.5
	c1.3,0,1.7-0.4,1.7-2v-9.9c0-1.6-0.3-2-1.7-2v-0.5c1.3,0,2.1,0,3.4,0s1.5,0,2.4,0L219.3,111.3"/>
<path class="st1" d="M219.3,111.3c-1.4,0-1.7,0.4-1.7,2v9.9c0,1.6,0.3,2,1.7,2v0.5c-1.3,0-1.8,0-2.9,0s-1.6,0-3,0v-0.5
	c1.3,0,1.7-0.4,1.7-2v-9.9c0-1.6-0.3-2-1.7-2v-0.5c1.3,0,2.1,0,3.4,0s1.5,0,2.4,0L219.3,111.3z"/>
<path class="st0" d="M234.7,114.8H234c0.1-1-0.4-1.9-1.1-2.5c-0.5-0.4-0.8-0.4-2-0.4h-1.8v11.2c0,1.6,0.3,2,1.7,2v0.5H229h-2.2h-1.8
	v-0.5c1.4,0,1.7-0.4,1.7-2v-11.2h-2.3c-1.7,0-2.3,0.7-2.6,3H221l0.2-4.1h0.3h9.1h2.1h1.5h0.4L234.7,114.8"/>
<path class="st1" d="M234.7,114.8H234c0.1-1-0.4-1.9-1.1-2.5c-0.5-0.4-0.8-0.4-2-0.4h-1.8v11.2c0,1.6,0.3,2,1.7,2v0.5H229h-2.2h-1.8
	v-0.5c1.4,0,1.7-0.4,1.7-2v-11.2h-2.3c-1.7,0-2.3,0.7-2.6,3H221l0.2-4.1h0.3h9.1h2.1h1.5h0.4L234.7,114.8z"/>
<path class="st0" d="M251,111.3c-1.1,0.1-1.5,0.5-2.2,1.9l-3.8,7.2v2.7c0,1.7,0.3,2,2,2.1v0.5h-0.5h-5.3h-0.7v-0.5
	c1.7,0,2.1-0.3,2.1-2.1v-2.7l-3.1-6.3c-1.2-2.4-1.4-2.7-2.9-2.8v-0.5h0.4h1.2c0.8,0,1.4,0,1.9,0h2.8h0.4v0.5c-1.3,0.1-1.7,0.3-1.7,1
	c0,0.3,0.1,0.7,0.2,1l2.8,5.9l2.8-5.8c0.2-0.3,0.3-0.7,0.3-1.1c0-0.7-0.4-1-1.3-1v-0.5h0.3h0.8h2.4h0.7h0.4V111.3"/>
<path class="st1" d="M251,111.3c-1.1,0.1-1.5,0.5-2.2,1.9l-3.8,7.2v2.7c0,1.7,0.3,2,2,2.1v0.5h-0.5h-5.3h-0.7v-0.5
	c1.7,0,2.1-0.3,2.1-2.1v-2.7l-3.1-6.3c-1.2-2.4-1.4-2.7-2.9-2.8v-0.5h0.4h1.2c0.8,0,1.4,0,1.9,0h2.8h0.4v0.5c-1.3,0.1-1.7,0.3-1.7,1
	c0,0.3,0.1,0.7,0.2,1l2.8,5.9l2.8-5.8c0.2-0.3,0.3-0.7,0.3-1.1c0-0.7-0.4-1-1.3-1v-0.5h0.3h0.8h2.4h0.7h0.4V111.3z"/>
<path class="st0" d="M263.1,111.2c-2.9,0-4.7,2.4-4.7,6.3c0,4.4,2.4,7.7,5.6,7.7c2.9,0,4.7-2.5,4.7-6.3v-0.3
	C268.5,114.2,266.2,111.2,263.1,111.2 M264,126c-5,0-8.7-3.3-8.7-7.8s3.5-7.7,8.1-7.7c4.8,0,8.2,3.3,8.2,7.8c0.2,4-2.9,7.5-7,7.7
	C264.5,126,264.2,126,264,126"/>
<path class="st1" d="M263.1,111.2c-2.9,0-4.7,2.4-4.7,6.3c0,4.4,2.4,7.7,5.6,7.7c2.9,0,4.7-2.5,4.7-6.3v-0.3
	C268.5,114.2,266.2,111.2,263.1,111.2z M264,126c-5,0-8.7-3.3-8.7-7.8s3.5-7.7,8.1-7.7c4.8,0,8.2,3.3,8.2,7.8c0.2,4-2.9,7.5-7,7.7
	C264.5,126,264.2,126,264,126z"/>
<path class="st0" d="M283.3,111.2c0,0.2,0,0.4,0,0.6c0,0.5,0,0.8,0.1,1l0.1,0.9v0.5l-0.7,0.1c-0.1-0.7-0.3-1.3-0.7-1.8
	c-0.7-0.8-1.5-1.1-3.8-1.1h-1.6v6.1h1.6c2.2,0,2.7-0.3,2.7-2.1h0.7c0,1-0.1,1.9-0.1,2.8c0,0.5,0,1,0,1.7v0.4H281
	c-0.1-1.6-0.6-2-2.8-2h-1.5v4.7c0,1.6,0.3,2,1.8,2h0.2v0.5h-0.4h-5.6h-0.2v-0.5c1.3,0,1.7-0.4,1.7-2v-9.9c0-1.6-0.3-2-1.7-2v-0.5
	h0.5h1.7h1.7h4.7c1.1,0,1.4,0,2.3,0L283.3,111.2"/>
<path class="st1" d="M283.3,111.2c0,0.2,0,0.4,0,0.6c0,0.5,0,0.8,0.1,1l0.1,0.9v0.5l-0.7,0.1c-0.1-0.7-0.3-1.3-0.7-1.8
	c-0.7-0.8-1.5-1.1-3.8-1.1h-1.6v6.1h1.6c2.2,0,2.7-0.3,2.7-2.1h0.7c0,1-0.1,1.9-0.1,2.8c0,0.5,0,1,0,1.7v0.4H281
	c-0.1-1.6-0.6-2-2.8-2h-1.5v4.7c0,1.6,0.3,2,1.8,2h0.2v0.5h-0.4h-5.6h-0.2v-0.5c1.3,0,1.7-0.4,1.7-2v-9.9c0-1.6-0.3-2-1.7-2v-0.5
	h0.5h1.7h1.7h4.7c1.1,0,1.4,0,2.3,0L283.3,111.2z"/>
<path class="st0" d="M127.9,147.7c-2.2,1.7-4.9,2.6-7.7,2.6c-5.6,0-9.4-3.5-9.4-8.8s4-9.1,10-9.1c2.3,0,4.6,0.5,6.8,1.4v0.4v1.2v2.2
	v0.5h-0.6c-0.5-2.9-3.1-5-6.1-4.9c-2.6-0.1-4.9,1.4-5.8,3.8c-0.5,1.2-0.7,2.4-0.7,3.7c0,4.9,2.9,8.7,6.7,8.7c1.9-0.1,3.8-0.9,5-2.4
	c0.6-0.6,1.2-1.3,1.7-2.1h0.2L127.9,147.7"/>
<path class="st1" d="M127.9,147.7c-2.2,1.7-4.9,2.6-7.7,2.6c-5.6,0-9.4-3.5-9.4-8.8s4-9.1,10-9.1c2.3,0,4.6,0.5,6.8,1.4v0.4v1.2v2.2
	v0.5h-0.6c-0.5-2.9-3.1-5-6.1-4.9c-2.6-0.1-4.9,1.4-5.8,3.8c-0.5,1.2-0.7,2.4-0.7,3.7c0,4.9,2.9,8.7,6.7,8.7c1.9-0.1,3.8-0.9,5-2.4
	c0.6-0.6,1.2-1.3,1.7-2.1h0.2L127.9,147.7z"/>
<path class="st0" d="M134.3,143.2h4.8l-2.6-6.2L134.3,143.2 M143.6,146.4c1,2.4,1.5,2.9,3.2,3.1v0.6h-0.7h-6.7v-0.6h0.2
	c1,0,1.4-0.3,1.4-1c0-0.3-0.1-0.6-0.2-0.9l-1.4-3.5H134l-1.2,3.3c-0.1,0.3-0.2,0.7-0.3,1.1c0,0.7,0.5,1,1.6,1h0.3v0.6
	c-0.9,0-1.2,0-2.2,0h-3.6v-0.6c1.4,0,2.4-0.8,3.1-2.7l5.9-14.4L143.6,146.4z"/>
<path class="st1" d="M134.3,143.2h4.8l-2.6-6.2L134.3,143.2z M143.6,146.3c1,2.4,1.5,2.9,3.2,3.1v0.6h-0.7h-6.7v-0.6h0.2
	c1,0,1.4-0.3,1.4-1c0-0.3-0.1-0.6-0.2-0.9l-1.4-3.5H134l-1.2,3.3c-0.1,0.3-0.2,0.7-0.3,1.1c0,0.7,0.5,1,1.6,1h0.3v0.6
	c-0.9,0-1.2,0-2.2,0h-3.6v-0.6c1.4,0,2.4-0.8,3.1-2.7l5.9-14.4L143.6,146.3z"/>
<path class="st0" d="M166.6,133.4h-0.2c-1.5,0.1-2,0.6-2,2.3v14.6h-0.6l-13.4-14.7v10.8c0,2.2,0.4,2.8,2.3,2.9v0.6h-5.4v-0.6
	c1.8-0.1,2.1-0.7,2.1-2.8v-11.2c0-1.3-0.6-1.8-1.9-1.8h-0.2v-0.7h0.4h1h1h1h1.2l11.4,12.7v-9.6c0-1.9-0.3-2.3-2.1-2.4v-0.7h0.4
	c0.7,0,1.8,0.1,2.4,0.1h1.1h1.5V133.4"/>
<path class="st1" d="M166.6,133.4h-0.2c-1.5,0.1-2,0.6-2,2.3v14.6h-0.6l-13.4-14.7v10.8c0,2.2,0.4,2.8,2.3,2.9v0.6h-5.4v-0.6
	c1.8-0.1,2.1-0.7,2.1-2.8v-11.2c0-1.3-0.6-1.8-1.9-1.8h-0.2v-0.7h0.4h1h1h1h1.2l11.4,12.7v-9.6c0-1.9-0.3-2.3-2.1-2.4v-0.7h0.4
	c0.7,0,1.8,0.1,2.4,0.1h1.1h1.5V133.4z"/>
<path class="st0" d="M183.9,137.4H183c-0.1-1.6-0.5-2.4-1.3-2.9c-0.6-0.4-0.9-0.5-2.3-0.5h-2v13c0,1.9,0.4,2.3,1.9,2.4v0.6h-2.1
	h-2.6c-0.5,0-1.2,0-2.1,0v-0.6c1.6,0,1.9-0.5,1.9-2.3v-13h-2.6c-1.9,0-2.7,0.8-3,3.4H168l0.2-4.8h0.4h10.5h2.4h1.7h0.5L183.9,137.4"
	/>
<path class="st1" d="M183.9,137.4H183c-0.1-1.6-0.5-2.4-1.3-2.9c-0.6-0.4-0.9-0.5-2.3-0.5h-2v13c0,1.9,0.4,2.3,1.9,2.4v0.6h-2.1
	h-2.6c-0.5,0-1.2,0-2.1,0v-0.6c1.6,0,1.9-0.5,1.9-2.3v-13h-2.6c-1.9,0-2.7,0.8-3,3.4H168l0.2-4.8h0.4h10.5h2.4h1.7h0.5L183.9,137.4z
	"/>
<path class="st0" d="M197.2,132.9l0.1,1.2c0,0.7,0.1,1.3,0.3,2.2v0.4l-0.8,0.1c-0.1-0.8-0.4-1.5-0.9-2.1c-0.8-0.9-1.4-1.1-3.9-1.1
	h-1.8v7h1.8c2.3,0,2.8-0.3,2.9-2.1v-0.3h0.8v0.3v1.1c0,0.3,0,0.8,0,1.4s0,1,0,1.2v1.3v0.5h-0.8c0-2-0.5-2.4-3-2.4h-1.7v5.3
	c0,1.8,0.4,2.1,2.4,2.1c3.5,0,4.7-0.8,5.3-3.6l0.8,0.1c-0.1,1-0.3,2.4-0.3,3.9v0.5c-1.1,0-2.7,0-4.6,0h-4.4h-2.2l-1.8,0.1v-0.6
	c1.5,0,1.9-0.5,1.9-2.3v-11.5c0-1.9-0.4-2.3-1.9-2.3v-0.6h0.5h1.3h1.9h2.3h2.6h2.4h0.8L197.2,132.9"/>
<path class="st1" d="M197.2,132.9l0.1,1.2c0,0.7,0.1,1.3,0.3,2.2v0.4l-0.8,0.1c-0.1-0.8-0.4-1.5-0.9-2.1c-0.8-0.9-1.4-1.1-3.9-1.1
	h-1.8v7h1.8c2.3,0,2.8-0.3,2.9-2.1v-0.3h0.8v0.3v1.1c0,0.3,0,0.8,0,1.4s0,1,0,1.2v1.3v0.5h-0.8c0-2-0.5-2.4-3-2.4h-1.7v5.3
	c0,1.8,0.4,2.1,2.4,2.1c3.5,0,4.7-0.8,5.3-3.6l0.8,0.1c-0.1,1-0.3,2.4-0.3,3.9v0.5c-1.1,0-2.7,0-4.6,0h-4.4h-2.2l-1.8,0.1v-0.6
	c1.5,0,1.9-0.5,1.9-2.3v-11.5c0-1.9-0.4-2.3-1.9-2.3v-0.6h0.5h1.3h1.9h2.3h2.6h2.4h0.8L197.2,132.9z"/>
<path class="st0" d="M205.9,141h0.7c0.9,0,1.8-0.1,2.6-0.4c1.1-0.5,1.8-1.7,1.7-3c0-1.4-0.6-2.7-1.7-3.6c-0.8-0.5-1.7-0.8-2.7-0.7
	h-0.7L205.9,141 M201.4,132.7c0.7,0,1.5,0,2.2,0c1.1,0,2.1,0,3.3-0.1c0.8,0,1.5,0,2,0c3.1,0,5.2,1.8,5.2,4.4c0,1.6-0.8,3-2.2,3.8
	c-0.4,0.2-0.9,0.4-1.3,0.5c0.4,0.3,0.7,0.7,0.9,1.2l1.4,2.6c1.5,2.8,1.8,3.2,2.5,3.7c0.3,0.2,0.6,0.3,0.9,0.4
	c0.3,0.1,0.5,0.1,0.8,0.1v0.6c-0.5,0.1-1.1,0.1-1.6,0.1c-1.4,0.1-2.8-0.5-3.9-1.5c-0.8-0.8-1.5-2-2.9-4.9c-0.7-1.4-1.2-1.8-2.6-1.8
	h-0.1v4.6c0,2.3,0.3,2.6,2.2,2.7v0.7h-2.4h-1.7c-0.9,0-1.6,0-3,0v-0.6c1.6,0,1.9-0.5,1.9-2.3v-11.5c0-1.9-0.4-2.3-1.9-2.3v-0.6
	L201.4,132.7z"/>
<path class="st1" d="M205.9,141h0.7c0.9,0,1.8-0.1,2.6-0.4c1.1-0.5,1.8-1.7,1.7-3c0-1.4-0.6-2.7-1.7-3.6c-0.8-0.5-1.7-0.8-2.7-0.7
	h-0.7L205.9,141z M201.4,132.7c0.7,0,1.4,0,2.2,0c1.1,0,2.1,0,3.3-0.1c0.8,0,1.5,0,2,0c3.1,0,5.2,1.8,5.2,4.4c0,1.6-0.8,3-2.2,3.8
	c-0.4,0.2-0.9,0.4-1.3,0.5c0.4,0.3,0.7,0.7,0.9,1.2l1.4,2.6c1.5,2.8,1.8,3.2,2.4,3.7c0.3,0.2,0.6,0.3,0.9,0.4
	c0.3,0.1,0.5,0.1,0.8,0.1v0.6c-0.5,0.1-1.1,0.1-1.6,0.1c-1.4,0.1-2.8-0.5-3.9-1.5c-0.8-0.8-1.5-2-2.9-4.9c-0.7-1.4-1.2-1.8-2.6-1.8
	h-0.1v4.6c0,2.3,0.3,2.6,2.2,2.7v0.7h-2.3h-1.7c-0.9,0-1.6,0-3,0v-0.6c1.6,0,1.9-0.5,1.9-2.3v-11.5c0-1.9-0.4-2.3-1.9-2.3v-0.6
	L201.4,132.7z"/>
<path class="st0" d="M222.3,146.9c0,1.9,0.4,2.3,1.9,2.3c2.4,0,3.6-1.1,3.6-3.3c0.1-2-1.2-3.8-3.2-4.3c-0.5-0.1-1-0.1-1.5-0.1
	c-0.4,0-0.5,0-0.8,0.1V146.9 M222.3,140.7c0.4,0,0.8,0.1,1.1,0.1c1.9,0,2.6-0.3,3.2-1.2c0.5-0.6,0.7-1.4,0.7-2.2
	c0.1-1.8-1.1-3.4-2.9-3.8c-0.4-0.1-0.9-0.1-1.3-0.1h-0.8V140.7z M218,132.7c0.2,0,0.7,0,1.6,0c1.1,0,1.7,0,1.9,0c0.4,0,1,0,1.9,0
	c0.5,0,0.9,0,1.3,0c1-0.1,1.9,0.1,2.8,0.4c1.7,0.5,2.9,2.1,2.9,3.9c0,2.1-1.7,3.7-4.4,4c0.8,0,1.6,0.2,2.4,0.5
	c1.7,0.6,2.8,2.2,2.8,4c0,2.9-2.2,4.5-6.1,4.5h-7.5v-0.6c1.6,0,2-0.5,2-2.3v-11.4c0-1.9-0.4-2.3-2-2.3v-0.6
	C217.6,132.7,217.8,132.7,218,132.7"/>
<path class="st1" d="M222.3,146.9c0,1.9,0.4,2.3,1.9,2.3c2.4,0,3.6-1.1,3.6-3.3c0.1-2-1.2-3.8-3.2-4.3c-0.5-0.1-1-0.1-1.5-0.1
	c-0.4,0-0.5,0-0.8,0.1V146.9z M222.3,140.7c0.4,0,0.8,0.1,1.1,0.1c1.9,0,2.6-0.3,3.2-1.2c0.5-0.6,0.7-1.4,0.7-2.2
	c0.1-1.8-1.1-3.4-2.9-3.8c-0.4-0.1-0.9-0.1-1.3-0.1h-0.8V140.7z M218,132.7c0.2,0,0.7,0,1.6,0c1.1,0,1.7,0,1.9,0c0.4,0,1,0,1.9,0
	c0.5,0,0.9,0,1.3,0c1-0.1,1.9,0.1,2.8,0.4c1.7,0.5,2.9,2.1,2.9,3.9c0,2.1-1.7,3.7-4.4,4c0.8,0,1.6,0.2,2.4,0.5
	c1.7,0.6,2.8,2.2,2.8,4c0,2.9-2.2,4.5-6.1,4.5h-7.5v-0.6c1.6,0,2-0.5,2-2.3v-11.4c0-1.9-0.4-2.3-2-2.3v-0.6
	C217.7,132.7,217.8,132.7,218,132.7L218,132.7z"/>
<path class="st0" d="M249.1,135.8v6.1c0,2.8-0.2,3.7-0.9,5c-1.2,2.2-3.4,3.4-6.4,3.4c-3.7,0-6.5-1.9-7.2-4.9c-0.2-1-0.3-2.1-0.3-3.1
	V136c0-2-0.2-2.3-1.8-2.6c-0.1,0-0.2,0-0.3,0v-0.6h0.5c0.7,0.1,1.5,0.1,2.2,0.1c1,0,2,0,2.4,0h1.4h0.6v0.6c-1.6,0.2-2,0.6-2,2.5v7
	c0,2.1,0.2,3.1,0.8,4.1c1,1.6,2.8,2.6,4.6,2.5c2.7,0.1,5-1.8,5.4-4.5c0.1-0.6,0.1-1.1,0.1-1.7v-0.6l-0.2-6.6c0-2.2-0.3-2.5-2-2.7
	h-0.3v-0.6h0.3h1.1c0.3,0,0.7,0,1.1,0s0.8,0,1.6,0h1h0.4v0.6c-1.6,0.1-2,0.7-2.1,2.6"/>
<path class="st1" d="M249.1,135.8v6.1c0,2.8-0.2,3.7-0.9,5c-1.2,2.2-3.4,3.4-6.4,3.4c-3.7,0-6.5-1.9-7.2-4.9c-0.2-1-0.3-2.1-0.3-3.1
	V136c0-2-0.2-2.3-1.8-2.6c-0.1,0-0.2,0-0.3,0v-0.6h0.5c0.7,0.1,1.5,0.1,2.2,0.1c1,0,2,0,2.4,0h1.4h0.6v0.6c-1.6,0.2-2,0.6-2,2.5v7
	c0,2.1,0.2,3.1,0.8,4.1c1,1.6,2.8,2.6,4.6,2.5c2.7,0.1,5-1.8,5.4-4.5c0.1-0.6,0.1-1.1,0.1-1.7v-0.6l-0.2-6.6c0-2.2-0.3-2.5-2-2.7
	h-0.3v-0.6h0.3h1.1c0.3,0,0.7,0,1.1,0s0.8,0,1.6,0h1h0.4v0.6C249.6,133.4,249.1,134,249.1,135.8z"/>
<path class="st0" d="M256.9,141h0.8c0.9,0,1.8-0.1,2.6-0.4c1.1-0.5,1.8-1.7,1.7-3c0-1.4-0.6-2.7-1.7-3.6c-0.8-0.5-1.7-0.8-2.7-0.7
	h-0.7V141 M252.4,132.7c0.7,0,1.4,0,2.2,0c1.1,0,2.1,0,3.3-0.1c0.8,0,1.5,0,2,0c3.1,0,5.2,1.8,5.2,4.4c0,1.6-0.8,3-2.2,3.8
	c-0.4,0.2-0.9,0.4-1.3,0.5c0.4,0.3,0.7,0.7,0.9,1.2l1.4,2.6c1.5,2.8,1.8,3.2,2.5,3.7c0.3,0.2,0.6,0.3,0.9,0.4
	c0.3,0.1,0.5,0.1,0.8,0.1v0.6c-0.5,0.1-1.1,0.1-1.6,0.1c-1.4,0.1-2.8-0.5-3.9-1.5c-0.8-0.8-1.5-2-2.9-4.9c-0.7-1.4-1.2-1.8-2.6-1.8
	h-0.2v4.6c0,2.3,0.3,2.6,2.2,2.7v0.7h-2.4H255c-0.9,0-1.6,0-3,0v-0.6c1.6,0,1.9-0.5,1.9-2.3v-11.5c0-1.9-0.4-2.3-1.9-2.3v-0.6
	L252.4,132.7z"/>
<path class="st1" d="M256.9,141h0.8c0.9,0,1.8-0.1,2.6-0.4c1.1-0.5,1.8-1.7,1.7-3c0-1.4-0.6-2.7-1.7-3.6c-0.8-0.5-1.7-0.8-2.7-0.7
	h-0.7V141z M252.4,132.7c0.7,0,1.4,0,2.2,0c1.1,0,2.1,0,3.3-0.1c0.8,0,1.5,0,2,0c3.1,0,5.2,1.8,5.2,4.4c0,1.6-0.8,3-2.2,3.8
	c-0.4,0.2-0.9,0.4-1.3,0.5c0.4,0.3,0.7,0.7,0.9,1.2l1.4,2.6c1.5,2.8,1.8,3.2,2.5,3.7c0.3,0.2,0.6,0.3,0.9,0.4
	c0.3,0.1,0.5,0.1,0.8,0.1v0.6c-0.5,0.1-1.1,0.1-1.6,0.1c-1.4,0.1-2.8-0.5-3.9-1.5c-0.8-0.8-1.5-2-2.9-4.9c-0.7-1.4-1.2-1.8-2.6-1.8
	h-0.2v4.6c0,2.3,0.3,2.6,2.2,2.7v0.7h-2.4H255c-0.9,0-1.6,0-3,0v-0.6c1.6,0,1.9-0.5,1.9-2.3v-11.5c0-1.9-0.4-2.3-1.9-2.3v-0.6
	L252.4,132.7z"/>
<path class="st0" d="M283.5,133.3c-1.2,0.1-1.7,0.5-2.6,2.2l-4.4,8.3v3.1c0,1.9,0.3,2.3,2.3,2.4v0.6h-0.6h-6.1h-0.8v-0.6
	c2,0,2.4-0.4,2.4-2.4v-3.1l-3.5-7.3c-1.3-2.8-1.7-3.1-3.3-3.2v-0.6h0.5h1.4c0.9,0,1.7,0,2.1,0h3.3h0.5v0.6c-1.5,0.1-1.9,0.4-1.9,1.2
	c0,0.4,0.1,0.8,0.3,1.2l3.2,6.8l3.2-6.7c0.2-0.4,0.3-0.8,0.3-1.2c0-0.8-0.5-1.1-1.6-1.2v-0.6h0.4h0.9h2.7h0.8h0.4V133.3"/>
<path class="st1" d="M283.5,133.3c-1.2,0.1-1.7,0.5-2.6,2.2l-4.4,8.3v3.1c0,1.9,0.3,2.3,2.3,2.4v0.6h-0.6h-6.1h-0.8v-0.6
	c2,0,2.4-0.4,2.4-2.4v-3.1l-3.5-7.3c-1.3-2.8-1.7-3.1-3.3-3.2v-0.6h0.5h1.4c0.9,0,1.7,0,2.1,0h3.3h0.5v0.6c-1.5,0.1-1.9,0.4-1.9,1.2
	c0,0.4,0.1,0.8,0.3,1.2l3.2,6.8l3.2-6.7c0.2-0.4,0.3-0.8,0.3-1.2c0-0.8-0.5-1.1-1.6-1.2v-0.6h0.4h0.9h2.7h0.8h0.4V133.3z"/>
<path class="st0" d="M169.7,44.8c-5.4,0.1-6.9,2.1-6.9,6.8l-0.3,26.9c-0.2,12.2-5.3,24.5-23.7,24.5c-15.5,0-27.3-6.7-27.3-24.6V51.5
	c0-4.7-1.5-6.7-7-6.8v-2.5c6.7,0.2,9.5,0.2,12.2,0.2s5.5,0,12.2-0.2v2.5c-5.4,0.1-6.9,2.1-6.9,6.8v28.9c0,12.6,8,19.3,17.3,19.3
	c14.6,0,19.8-9.4,19.8-23.9c0-4.7-0.1-8-0.2-11.7L158.6,52c-0.1-5-1.2-7.2-7.3-7.2v-2.5c3.1,0.1,6.4,0.2,9,0.2c2.6,0,6-0.2,9.3-0.2
	L169.7,44.8"/>
<path class="st0" d="M227.6,60.8h-2.2c-1.8-12-12.1-16.5-22.1-16.5c-11.1,0-21.9,8.8-21.9,25c0,15.7,9,30,23.5,30
	c6.3,0,16.1-3.7,23.3-15.1v9.9c-7,5.9-17,8.7-26,8.7c-28.9,0.1-33.2-22.4-33.2-31.5c0-13.5,9.6-30.2,35.7-30.2
	c7.9,0.3,15.6,1.9,22.9,4.7L227.6,60.8"/>
<path class="st2" d="M283.4,63.5c0.1,35.8-25.4,40.9-25.4,40.9s-25.4-5.4-25.4-40.9V43h50.7L283.4,63.5"/>
<path class="st3" d="M233.7,44v18.7c0.9,0.7,2,1.2,3.1,1.3c0,0,1.1,0.4,2.8-1.5c0,0,1.6-1.8,3.3-1.8c0,0,1-0.3,3.5,1.5
	c1,1,2.4,1.7,3.8,1.9c1.5-0.1,2.8-0.7,3.8-1.8c1-0.9,2.3-1.5,3.7-1.6c0,0,1.5-0.3,3.8,1.7c1,1,2.4,1.6,3.9,1.7
	c1.5-0.1,2.8-0.8,3.7-2c0.9-0.9,2.2-1.5,3.5-1.7c1.3,0.1,2.6,0.7,3.5,1.7c0,0,2,2.1,3.5,1.9c1,0,2-0.5,2.7-1.3V44H233.7"/>
<path class="st2" d="M252,47.5c0.8,0.1,1.7-0.1,2.4-0.5c1.1-0.6,2.4-0.6,3.5,0c1.2-0.6,2.6-0.6,3.8,0c0.9,0.4,1.8,0.7,2.8,0.6v0.2
	l1.3,0.1v1h0.7v1.9h-0.7v0.5h0.7v1.9h-0.7v0.8h0.7V56h-0.7v0.8h0.7v1.9h-0.7v0.6H259c-0.6,0.3-1.4,0.3-2,0h-6.4v-0.8l-0.7-0.1
	l0.3,0.2l-0.6,0.6l-1-0.9h-0.5c0,0-0.4-0.2,0-0.6h0.5l1-0.9l0.7,0.6h-0.4v0.2l0.7-0.1v-1.8l-0.8-0.1l0.3,0.2l-0.6,0.7l-1.1-1h-0.5
	c0,0-0.5-0.3,0-0.6h0.5l1-0.9l0.7,0.6l-0.4,0.2h0.8v-1.9l-0.9-0.1L250,53l-0.6,0.6l-1-0.9h-0.5c0,0-0.5-0.2,0-0.6h0.5l1-1l0.7,0.6
	l-0.5,0.2l0.9-0.1v-1.7h-0.8l0.4,0.2l-0.7,0.7l-0.9-0.9h-0.5c0,0-0.6-0.2,0-0.6l0.3,0l1.2-1L250,49l-0.5,0.3h0.9v-1.4l1.5-0.1
	L252,47.5"/>
<path class="st2" d="M272.1,48.1L272.1,48.1c-0.1-0.3-0.4-1.6,1.7-1.9c0.2-0.5,0.6-1,1-1.3c0.4,0.4,0.7,0.9,1,1.4
	c0.9,0.2,1.6,1,1.7,1.9c0,0-1.1-0.6-1.3,0.2l0.1,2.6h2.5c0.3-0.3,0.5-0.7,0.3-1.2c0,0,1.6-0.8,1.7,1.7c0.5,0.2,1,0.5,1.4,0.8
	c-0.4,0.5-0.9,0.9-1.5,1.1c0,0-0.2,1.8-1.7,1.7c0,0,0.5-1-0.2-1.3h-2.6v2.6c0.2,0.4,0.7,0.5,1.1,0.3c0,0,0.8,1.7-1.5,1.7
	c-0.2,0.6-0.6,1.1-1,1.5c-0.5-0.4-0.8-1-1-1.6c0,0-1.6-0.1-1.7-1.7c0,0,0.9,0.3,1.3-0.3l-0.1-2.6h-2.5c-0.4,0.2-0.5,0.7-0.3,1.1
	c0,0,0,0.1,0.1,0.1c0,0-1.7,0.6-1.8-1.6c-0.5-0.2-1-0.6-1.4-1c0.4-0.4,1-0.8,1.5-1c0,0,0.2-1.7,1.8-1.7c0,0-0.6,1,0.2,1.3h2.6v-2.7
	c-0.2-0.4-0.7-0.5-1.1-0.3C272.2,48.1,272.2,48.1,272.1,48.1"/>
<polygon class="st2" points="233.8,48.1 236.6,45.3 240.8,49.5 244.9,45.3 247.9,48.2 242.7,53.2 242.7,60 238.7,60 238.7,53.2 "/>
<polygon class="st3" points="251.1,48.6 251.9,48.5 251.9,57.3 251.2,58.1 "/>
<path class="st3" d="M251.6,58.5l0.8-0.8c0,0,0.8,0.3,5.1-0.7l-0.7,1.4L251.6,58.5"/>
<path class="st4" d="M257.9,57.6l-0.6,1.2c0.4,0.1,0.8,0.1,1.2,0L257.9,57.6"/>
<path class="st3" d="M258.2,57l0.8,1.5h5.6l-0.8-0.7c-1.5,0-3.1-0.2-4.6-0.6C258.9,57.1,258.6,57.1,258.2,57"/>
<polygon class="st3" points="264.5,57.6 265,58 265,48.6 264.5,48.5 "/>
<path class="st5" d="M272.7,47.3c0,0,0.3-0.7,1.5-0.4c0.1-0.4,0.2-0.8,0.5-1.2c0.3,0.3,0.4,0.7,0.4,1.2c0.5,0,1,0.2,1.5,0.5
	c-0.4,0-0.8,0.3-1.1,0.6v3.6h3.6c0.4-0.3,0.6-0.8,0.6-1.3c0,0,0.7,0.3,0.5,1.6c0.4,0,0.9,0.2,1.1,0.5c-0.3,0.3-0.7,0.4-1.1,0.4
	c0,0.5-0.2,1.1-0.5,1.5c0,0-0.1-0.9-0.7-1.1h-3.5v3.5c0.3,0.5,0.7,0.7,1.3,0.7c0,0-0.3,0.8-1.5,0.5c0,0-0.1,1.1-0.4,1.3
	c-0.4-0.3-0.6-0.8-0.6-1.2c0,0-1.2-0.2-1.3-0.6c0.4-0.1,0.8-0.3,1-0.7v-3.5h-3.6c0,0-0.8,0.5-0.6,1.2c0,0-0.6,0-0.6-1.6
	c-0.4,0-0.8-0.2-1.2-0.5c0.3-0.3,0.8-0.5,1.2-0.5c0-0.5,0.2-1,0.5-1.3c0,0.4,0.3,0.8,0.7,1h3.6V48C273.6,47.6,273.1,47.3,272.7,47.3
	"/>
<path class="st0" d="M250.7,79.7c0.5,0.1,1-0.1,1.4-0.3c0.1,0.2,0.1,0.4,0.1,0.7C252.2,80,250.9,80.6,250.7,79.7"/>
<path class="st0" d="M251.8,83.1v1.1l0.3-0.4l0.4-0.1l0.3,0.3l-0.1,0.4l1-0.3c0,0,0.9-0.1,1.3-1.3c-0.3-0.3-0.2-0.8,0.1-1.1
	c0,0,0,0,0,0c-0.2-1.4-0.1-2.7,0.1-4.1c0.5-0.3,0.7-0.8,0.5-1.3c0.3-0.3,0.3-0.8,0.1-1.2c0.2-0.3,0.3-0.7,0.1-1.1
	c0.3-0.3,0.4-0.8,0.2-1.2c0.2-0.3,0.3-0.7,0.1-1.1c0.2-0.3,0.2-0.7,0.1-1c0,0,0.4-0.1,0.4-0.4h2.1v-0.4h-2.2c-0.2,0-0.3-0.1-0.3-0.3
	l-0.7,0.5l-0.3,0.9l-0.1,1.3l-0.1,1.3l-0.2,1.7l-0.3,1l-0.4,2.1l-0.2,1.4l-0.1,1.6L254,83l-0.3,0.4l-0.6,0.4l-0.4-0.5h-0.2l-0.1-0.2
	l-0.1-0.6l-0.3,0.1L251.8,83.1"/>
<path class="st0" d="M261,75.9c0,0.7,0.6,1.3,1.3,1.3h0.2l0.1-0.6l-1-0.5l-0.3-0.2L261,75.9"/>
<path class="st0" d="M261.5,83.3v0.6l0.3-0.2v0.6h0.9c0.6,0,1.2-0.3,1.6-0.8c0.2-0.3,0.3-0.6,0.1-0.9c0,0,0.5,0,0.6-0.7
	c0-0.2,0.1-0.4,0.2-0.5c0,0-0.1-2.5,0-3.8c0,0,1,0.5,1.5-0.2c0.2-0.4,0.3-0.8,0.3-1.2c0.2-0.2,0.2-0.5,0.1-0.8
	c0.1-0.3,0.1-0.6-0.1-0.8c0.2-0.4,0.1-0.8-0.2-1.2c0.1-0.4,0-0.8-0.2-1.1c0.1-0.4,0-0.8-0.3-1.1c0.1-0.4,0-0.9-0.3-1.2
	c0-0.4-0.1-0.7-0.4-1c0-0.5-0.3-0.9-0.7-1.2c-0.1-0.4-0.4-0.8-0.8-0.9c-0.1-0.4-0.4-0.7-0.8-0.8c-0.1-0.3-0.3-0.6-0.6-0.7
	c-0.1-0.5-0.5-0.8-1-0.8c-0.1-0.3-0.5-0.6-0.8-0.6c0,0,0-0.3-0.9-0.4c0.3-0.6,0.2-1.3-0.3-1.8c-0.4-0.3-0.9-0.4-1.4-0.4l0.9,0.8
	l0.4,0.7l-0.2,0.7c0,0.1,0.1,0.1,0.1,0.2l1,2.1l1.8,0.3l1,0.7l0.5,0.5l0.5,0.7l0.4,0.7l0.6,0.9l0.3,1.2l0.3,1l0.2,1l0.2,1v0.6
	l-0.1,1.7l-0.4,0.6L265,77l-0.2,0.2l-0.3,0.4l-0.1,2.7V81v0.6l-0.2,0.5l-0.4,0.1H263l-0.8,0.4L261.5,83.3"/>
<rect x="257.1" y="64.2" class="st3" width="1.7" height="5.2"/>
<path class="st4" d="M259.3,63.7c0.1-0.2,0.2-0.4,0.2-0.7c0-0.8-0.7-1.5-1.5-1.5s-1.5,0.7-1.5,1.5c0,0.2,0.1,0.4,0.1,0.6h1
	c-0.2-0.1-0.4-0.4-0.4-0.7c0-0.4,0.3-0.7,0.7-0.7c0.4,0,0.7,0.3,0.7,0.7c0,0.3-0.2,0.5-0.4,0.7L259.3,63.7"/>
<path class="st0" d="M240.5,81.3c-0.5,0.1-0.8,0.5-0.9,1c0,0-0.2,0.8,0.8,1.1c0,0,2.3,0.4,2.8,0.6c0,0,3.5,0.6,8.8,3.9v-0.4h0.9
	l0.1-0.2l-4.4-2.8l-2-0.6l-3.4-1.2l-2.3-0.5l-0.4-0.4L240.5,81.3"/>
<path class="st0" d="M239.1,84.2c-0.6,0.1-1,0.6-1,1.2c0,0-0.2,0.9,1,1.1c4.5,0.4,8.9,1.8,12.9,4v-0.9l-0.7-0.8l-1.5-0.9l-2.5-0.9
	l-3.7-1l-1.5-0.3l-2.3-0.4l-0.7-0.2L239.1,84.2"/>
<path class="st0" d="M251.1,95.9v0.8h16.2l-5.5-6h3l1.6,2.4l0.2,0.6v0.4c0.5,0.7,1.2,1.2,2.1,1.4v-3.1c-0.4,0.2-0.9,0-1.1-0.5
	c0-0.1,0-0.1,0-0.2l-0.6-1.7c1.5-0.6,3-1.4,4.2-2.5c0,0,0.8,0.4,1.1,0.5c0,0,1.7,0.8,2.5-0.4c0,0,1-1.7-1.2-2.9l-4.1-2.3
	c-0.8-0.4-1.8-0.1-2.3,0.7l3.9,3.4v0.2l-0.3,0.3l-4.4,0.8l-0.2-0.2l-0.6-2.1H265l-0.3,0.5l0.9,3.7l-0.7,0.4c0,0-0.4-0.4-0.3-0.2
	c0.1,0.2-4.6,0-4.6,0l0.4,0.6l1.6,1.8l2.1,2.9l0.7,0.4h-11.6L251.1,95.9"/>
<polygon class="st5" points="234.6,48.1 236.5,46.1 240.8,50.3 244.9,46.2 246.8,48.2 242.1,52.8 242.1,59.3 239.3,59.3 239.3,52.9 
	"/>
<path class="st3" d="M240.2,50.7h1.1l-0.2,1l0.7-0.4v1.2l-0.6-0.2v1.8c-0.1,0.2-0.2,0.4-0.4,0.6c-0.1,0-0.2-0.2-0.4-0.6v-1.8
	l-0.7,0.2v-1.2l0.7,0.4L240.2,50.7"/>
<path class="st3" d="M240,55.2h1.2L241,56l0.7-0.2v1.1l-0.7-0.2v1.9c-0.1,0.4-0.2,0.5-0.4,0.5c-0.2-0.1-0.3-0.3-0.4-0.5v-1.9
	l-0.6,0.2v-1.1l0.7,0.2L240,55.2"/>
<path class="st3" d="M235.7,48.2l0.8-0.8l0.5,0.7l0.2-0.7l0.8,0.8l-0.7,0.2l1.4,1.4c0.2,0.2,0.2,0.5,0.2,0.7c-0.3,0-0.5-0.1-0.7-0.2
	l-1.4-1.3l-0.2,0.6l-0.8-0.8l0.7-0.2L235.7,48.2"/>
<path class="st3" d="M244.8,47.3l0.8,0.8l-0.7,0.5l0.7,0.2l-0.8,0.8l-0.4-0.6l-1.3,1.4c-0.2,0.1-0.5,0.1-0.7,0.1
	c0-0.2,0.1-0.4,0.1-0.6l1.5-1.4l-0.6-0.4l0.7-0.8l0.4,0.7L244.8,47.3"/>
<path class="st3" d="M252.4,88v2h12.1c0,0,1,4.5,3.7,4.8v-1.9c0,0-0.8,0.2-1.3-1.2l-0.7-2.1c1.7-0.6,3.2-1.5,4.6-2.7l-1.8-1
	c-1,0.7-2.1,1.3-3.3,1.8l-0.7-2.3l-1.8,0.4l0.7,2.1L252.4,88"/>
<polygon class="st3" points="254.5,90.5 254.5,91.2 258.5,91.2 258.5,90.5 "/>
<path class="st3" d="M252.5,90.5v4.1h9.2c0,0,0.5,0,0.5-0.5c0,0,0.1-0.3-0.4-0.8l-2.7-2.9v1.4h-5.3v-1.3L252.5,90.5"/>
<path class="st3" d="M251.1,95.2v0.7h14.3l-5-5.4H260l2.5,2.7c0.3,0.4,0.4,0.9,0.3,1.4c0,0-0.2,0.6-1.1,0.6H251.1"/>
<path class="st3" d="M267.7,84.8c-0.5-0.3-0.8-1-0.5-1.6c0,0,0.4-0.8,1.7-0.4l4.8,2.7c0,0,1.2,0.8,0.7,1.8c0,0-0.4,0.8-1.9,0.1
	L267.7,84.8"/>
<path class="st3" d="M243.8,84.9c0.4,0.1,1.7,0.5,1.7,0.5c0.1-0.2,1.1-1.1,1.1-1.1c-0.2-0.1-1.5-0.6-1.5-0.6L243.8,84.9 M238.9,85.6
	c-0.5-0.2-0.4-0.8-0.4-0.8c0-0.4,0.3-0.7,0.7-0.7c0,0,0,0,0,0c1,0.1,3,0.5,3,0.5l1.3-1.4c-1-0.3-2-0.6-3.1-0.7
	c-0.3-0.1-0.5-0.4-0.5-0.8c0.2-0.7,0.7-0.6,0.7-0.6c5.1,0.9,10,3,14.1,6.2h-2c-1.6-1.1-3.3-2.1-5.1-2.9c-0.2,0.2-1,1.1-1,1.1
	c1.8,0.6,3.5,1.4,5.2,2.2v1.6C247.9,87.3,243.5,86,238.9,85.6"/>
<polygon class="st2" points="272.6,85.8 272.1,86.3 272.6,86.8 273.1,86.3 "/>
<polygon class="st2" points="269.2,83.9 268.8,84.4 268.3,83.9 268.8,83.4 "/>
<polygon class="st2" points="270.7,84.1 269.6,85.1 270.6,86.1 271.7,85.1 "/>
<polygon class="st3" points="270.6,84.9 270.5,85.1 270.6,85.2 270.9,85.1 "/>
<path class="st4" d="M249.5,73.2c0-0.4,0.2-0.7,0.5-1c0,0-0.2-0.8,0.3-1c0,0-0.2-0.8,0.5-1c0,0,0-0.8,0.6-1c0-0.4,0.2-0.7,0.6-0.9
	c-0.1-0.4,0.2-0.8,0.6-0.9c0,0,0-1.1,0.9-1.1c0.1-0.5,0.6-0.9,1.1-0.9c0.2-0.4,0.6-0.7,1.1-0.7c0.2-0.3,0.6-0.6,1-0.6v5.8
	c0,0-0.2,0.8-0.6,0.6c0,0,0.5,0.9,0,1.2c0,0,0.5,0.8-0.2,1c0,0,0.3,0.9-0.2,1.3c0,0,0.4,0.8-0.2,1.1c0,0,0.5,0.7-0.1,1.1
	c0,0,0.5,1.1-0.4,1.2c0,0-0.6,2.9-0.2,4.3c0,0-0.6,0.3-0.2,1.3c0,0.4-0.3,0.7-0.6,0.8l-0.6,0.1l0.4-0.7l-0.1-0.1l-0.5,0.6l-0.2-0.3
	c0.2-0.2,0.3-0.5,0.4-0.8c0,0,0.6,0,0.4-0.5c0.1-0.2,0.1-0.4,0-0.6c0.2-1.3,0.2-2.7,0-4c0.1,0,0.2,0,0.3,0c0,0-0.9-0.3-0.6-1.6
	c0,0-0.8-0.1-0.1-0.6c0,0-0.8-0.4,0.1-0.9c0,0-0.8-0.4,0-0.9c-0.4-0.1-0.7-0.5-0.6-0.9c0,0,0,0,0-0.1c-0.3,0.3-0.4,0.8-0.3,1.2
	c-0.2-0.2-0.5-0.2-0.7-0.2c-0.5-0.2-1.1-0.2-1.5,0.2C249.9,73.5,249.6,73.4,249.5,73.2"/>
<path class="st4" d="M248.4,73.5c0.6,0,1.2,0.3,1.5,0.9c0,0,0.4,1,1,0.7c0,0,0.4,0,0.7-0.9c0,0,0.2-0.5,0.4-0.1
	c0.2,0.4,0.2,0.9-0.1,1.2c-0.3,0.4-0.8,0.6-1.4,0.5c0,0-0.7,0-1.2-1C249.2,74.4,248.9,73.9,248.4,73.5"/>
<path class="st4" d="M250.1,76.2c0.6,0.2,1.2,0.1,1.7-0.2c0.2,0.3,0.2,0.7,0.2,1.1c0,0-0.9,0.2-0.4,1.4c0,0-0.2-0.2-0.5-0.1
	c-0.1,0.1-0.1,0.3,0,0.5l0.2,0.4c0,0-0.5,0.4-1.1-0.8c0,0-0.3-1-1.1-1.2c0.1-0.2,0.2-0.3,0.2-0.5C249.7,76.7,250,76.5,250.1,76.2"/>
<path class="st4" d="M250.3,74.1l0.2,0.4c0,0,0.1,0.3,0.4,0c0.2-0.2,0.3-0.4,0.4-0.7C251.3,73.9,250.9,73.7,250.3,74.1"/>
<path class="st4" d="M248.3,74.3c-0.3-0.3-0.7-0.4-1.1-0.4c0.3,0.3,0.6,0.7,0.8,1.1C248,75,248.2,74.4,248.3,74.3"/>
<path class="st4" d="M252.3,77.4c-0.1,0.1-0.2,0.1-0.2,0.2c-0.1,0.2-0.1,0.4,0,0.6c0,0,0.5,0.8,0.1,1.2c0.2,0.9,0.2,1.8,0,2.7
	c-0.2,0.4-0.3,0.7-0.3,1.1l0.3-0.5h0.2l-0.1,0.6l0.4-0.1c0.2-0.3,0.3-0.6,0.3-0.9c0,0-0.1-0.5,0.3-0.6c-0.1-0.2-0.1-0.4,0-0.6
	c0.3-1.2,0.3-2.5-0.1-3.7C252.8,77.5,252.5,77.5,252.3,77.4"/>
<path class="st4" d="M252.3,76.1c0,0.2,0.1,0.5,0.1,0.7l0.1,0.1h0.2v-0.6L252.3,76.1"/>
<path class="st4" d="M259.2,69.9c0,0,0,0.8,0.5,1.1c-0.2,0.3-0.1,0.7,0.2,1c0,0-0.2,0.8,0.3,1.1c0,0-0.2,0.7,0.2,1
	c-0.1,0.4,0,0.9,0.3,1.2c0,0,0,0.7,0.6,0.8c0,0,0.4,0.8,1,0.6c0,0,0.7,0.5,0.2,4.7c-0.3,0.1-0.5,0.5-0.4,0.8c0,0-0.4,0.2-0.6,1.2
	h0.1l1-0.8l0.1,0.1l-0.7,1.1l0.9-0.6l0.1,0.1c-0.3,0.2-0.5,0.4-0.8,0.7c0,0,0.2,0.1,1.2-0.2c0.2-0.1,0.4-0.2,0.5-0.4
	c0,0,0.2-0.1,0-0.4c-0.1-0.1-0.2-0.3-0.2-0.5c0.1,0,0.3,0,0.4-0.1c0,0,0.1,0,0.2-0.2c0-0.2,0.1-0.5,0.3-0.6c0,0-0.2-4,0.1-4.3
	c0,0,0.2-0.8-0.5-1c0,0,0.8-0.7,0.1-1c0,0,0.8-0.7-0.1-1.1c0,0,1-0.7,0.3-1.3c0.3-0.3,0.2-0.8-0.1-1.1c0,0,0.2-1-0.4-1.1
	c0,0,0.5-0.7-0.1-0.9c0,0,0.3-1-0.3-1.3c0,0,0.8,0,0.9,1c0,0,0.5,0.2,0.1,0.9c0.3,0.3,0.5,0.8,0.3,1.2c0.3,0.4,0.3,0.8,0.1,1.2
	c0,0,0.5,0.8-0.2,1.3c0.3,0.3,0.3,0.7,0.1,1c0.3,0.3,0.2,0.7-0.1,1c0,0,0,0,0,0c0.2,0.3,0.2,0.7,0,1c0,0,0.8,0.7,1.4,0.1
	c0.3-0.3,0.3-0.7,0.2-1.1c0,0,0.4-0.4,0.2-0.7c0.1-0.2,0.1-0.5-0.1-0.6c0.2-0.4,0.1-0.8-0.1-1.2c0,0,0.2-0.8-0.2-1.1
	c0.1-0.4,0-0.8-0.3-1c0,0,0.2-0.8-0.3-1.2c0-0.4-0.1-0.8-0.5-1c0-0.5-0.3-0.9-0.7-1.1c0-0.4-0.4-0.8-0.8-0.9
	c-0.1-0.4-0.4-0.7-0.8-0.8c0-0.3-0.2-0.6-0.5-0.7c0,0-0.1-0.7-1.1-0.6c-0.1-0.4-0.4-0.6-0.8-0.6c-0.2-0.2-0.5-0.3-0.8-0.3l-0.3-0.2
	v5.8C259.4,69.7,259.4,69.9,259.2,69.9"/>
<path class="st2" d="M259.9,68.8c0,0-0.4,0.9,0.1,1.4c0,0-0.1,0.7,0.2,0.8c0,0-0.3,0.7,0.2,1c0,0-0.1,0.9,0.4,1.2
	c0,0-0.4,0.8,0.3,1.2c0,0-0.1,0.6,0.4,0.8c0,0.4,0.4,0.8,0.8,0.8c0,0,0.4,0.7,1,0.4c0,0-0.8-0.4-0.6-0.8c0,0-0.9,0-0.7-0.7
	c0,0-0.7-0.3-0.4-0.8c0,0-0.6-0.2-0.3-1c-0.3-0.3-0.4-0.7-0.2-1.1c0,0-0.6-0.4-0.3-1c0,0-0.5-0.4-0.2-0.9
	C260.1,69.8,259.8,69.3,259.9,68.8"/>
<rect x="257.7" y="64.1" class="st4" width="0.6" height="5.3"/>
<path class="st4" d="M252.5,48.2c0.8,0,1.5-0.2,2.1-0.6c1-0.6,2.3-0.5,3.2,0.2c1.1-0.7,2.4-0.7,3.5-0.2c0.8,0.4,1.6,0.7,2.5,0.8v8.9
	c-1,0-1.9,0-2.9-0.2c-0.9-0.2-1.9-0.4-2.9-0.5v-8.2l-0.3-0.4l-0.3,0.4v8.3c0,0-1.1,0.2-2.4,0.4c-0.8,0.2-1.7,0.3-2.6,0.3L252.5,48.2
	"/>
<path class="st2" d="M250.1,77.1c-0.1,0-0.1-0.1-0.1-0.2l0,0c-0.1,0.2,0,0.5,0.1,0.7l0.2-0.2l0.2-0.2l0,0l0,0c0,0,0,0,0-0.1
	c0.1-0.2,0-0.5-0.2-0.6c0,0,0,0,0,0l-0.1,0.3L250.1,77.1"/>
<path class="st2" d="M262.7,82.7c-0.2-0.3-0.2-0.7,0.1-1c0-0.3,0.1-0.6,0.3-0.8c0.2-1.2,0.2-2.5,0-3.8c-0.1-0.2-0.2-0.4-0.2-0.7
	c0.2,0.3,0.4,0.5,0.8,0.5c0.1,1.3,0.1,2.6,0,3.9c0,0-0.1,0.6-0.2,0.7c0,0.1,0,0.2,0,0.3c-0.1,0.2-0.2,0.3-0.4,0.3
	C262.8,82.3,262.6,82.5,262.7,82.7"/>
<path class="st4" d="M248.7,74.7l0.4,0.7c0.2,0.3,0.4,0.5,0.7,0.7c-0.1,0.1-0.3,0.1-0.5,0.1c0,0-0.4-0.1-0.4,0.3c0,0,0.1,0.3,0,0.4
	s-0.1,0.2-0.3,0.1c-0.1-0.1-0.1-0.3-0.1-0.4c0,0,0.2-0.2,0.2-0.4c0-0.1-0.2-0.2-0.3-0.2l0,0c-0.3-0.1-0.3-0.3,0-0.4
	c0,0,0.5,0,0.3-0.4l-0.2-0.2L248.7,74.7"/>
<polygon class="st2" points="257.9,47.7 257.5,48.2 257.5,56.5 258.2,56.5 258.2,48.2 "/>
<polygon class="st0" points="186.2,160.6 183.1,160.6 183.3,159.9 186.4,159.9 "/>
<rect x="94" y="10" class="st6" width="200" height="200"/>
</svg>
